<?xml version="1.0" standalone="no"?>
<!DOCTYPE svg PUBLIC "-//W3C//DTD SVG 20010904//EN"
 "http://www.w3.org/TR/2001/REC-SVG-20010904/DTD/svg10.dtd">
<svg version="1.0" xmlns="http://www.w3.org/2000/svg"
 width="300.000000pt" height="162.000000pt" viewBox="0 0 300.000000 162.000000"
 preserveAspectRatio="xMidYMid meet">
<metadata>
Created by potrace 1.10, written by Peter Selinger 2001-2011
</metadata>
<g transform="translate(0.000000,162.000000) scale(0.100000,-0.100000)"
fill="#000000" stroke="none">
<path d="M1005 1481 c-3 -17 -4 -35 -1 -40 4 -5 0 -13 -7 -18 -18 -10 -30 -60
-17 -68 19 -12 10 -30 -45 -89 -98 -104 -166 -285 -145 -383 10 -42 10 -43
-36 -85 -60 -56 -69 -73 -38 -74 19 -2 24 3 24 23 0 25 34 62 58 63 7 0 17 10
22 23 5 12 17 33 26 47 13 20 12 20 -9 -4 -13 -15 -27 -24 -30 -20 -8 15 -6
97 4 129 31 108 42 135 50 135 6 0 8 4 4 9 -3 5 1 16 9 24 8 8 12 17 9 20 -3
4 22 35 56 70 l61 63 74 -10 c73 -11 116 -34 116 -61 0 -7 9 -24 20 -37 26
-34 53 -114 45 -138 -4 -12 -2 -20 4 -20 6 0 11 -12 11 -27 0 -55 5 -91 12
-86 23 13 -9 188 -48 267 -14 28 -34 60 -43 71 -24 27 -32 63 -16 73 14 8 15
53 1 63 -5 4 -4 20 2 36 5 17 7 35 3 40 -3 6 -35 13 -71 16 -36 3 -72 8 -82
12 -12 5 -18 -1 -23 -24z m99 -23 c-5 -8 0 -7 11 2 11 9 16 10 11 3 -4 -8 -2
-13 6 -13 9 0 9 -3 -2 -10 -13 -8 -12 -10 3 -10 9 0 17 -5 17 -11 0 -6 -7 -8
-16 -5 -9 3 -36 6 -61 6 -39 0 -44 2 -33 15 7 8 20 15 29 15 14 0 14 2 1 10
-12 8 -9 10 13 10 20 0 26 -4 21 -12z m41 -70 c7 -7 -2 -9 -30 -4 -22 3 -53 6
-68 6 -18 0 -26 4 -21 11 8 14 104 3 119 -13z m-11 -43 c-10 -8 -28 -15 -39
-16 -14 -1 -11 -4 10 -9 26 -7 23 -8 -22 -9 -28 0 -55 4 -58 9 -4 6 6 10 22
11 24 0 25 1 8 9 -16 6 -10 9 25 12 25 3 51 5 59 6 10 1 8 -3 -5 -13z"/>
<path d="M1936 1464 c-9 -8 -16 -21 -16 -29 0 -7 -7 -15 -15 -19 -8 -3 -15
-12 -15 -21 0 -10 -7 -15 -17 -13 -13 2 -18 -4 -18 -21 0 -20 -8 -25 -68 -40
-89 -23 -94 -29 -67 -81 12 -23 24 -40 26 -37 3 3 -2 19 -10 36 -23 44 -21 49
30 64 l46 13 52 -51 c30 -29 70 -56 93 -64 35 -11 42 -18 46 -47 9 -54 -5 -88
-37 -92 -16 -2 -33 1 -38 6 -11 11 -38 5 -38 -8 0 -5 8 -6 19 -3 29 7 34 -13
6 -25 -20 -9 -25 -8 -30 7 -5 16 -10 16 -39 7 -36 -11 -59 -56 -29 -56 9 0 12
6 9 18 -5 14 0 18 27 19 19 0 23 -1 10 -4 -25 -5 -28 -21 -14 -70 8 -28 6 -34
-24 -62 -18 -16 -35 -28 -37 -25 -3 2 -5 -3 -5 -11 0 -13 2 -13 17 0 9 8 22
15 29 15 7 0 10 4 7 9 -3 5 1 14 9 21 12 10 16 8 24 -11 6 -15 10 -18 10 -8 1
9 -2 19 -6 23 -12 12 -13 48 -2 63 10 11 9 12 -5 7 -10 -4 -16 -1 -16 9 0 8 7
18 16 21 22 8 26 8 19 -4 -3 -5 -2 -10 3 -10 30 0 16 -100 -31 -220 -22 -56
-28 -155 -11 -182 9 -14 10 -18 13 -58 1 -20 3 -22 11 -9 6 10 4 35 -5 70 -8
30 -15 72 -15 93 0 43 19 106 32 106 10 0 -1 -50 -14 -67 -5 -7 -5 -14 1 -17
13 -8 36 74 51 179 7 44 20 95 30 113 11 17 15 32 10 32 -6 0 -10 4 -10 9 0 5
9 7 19 4 13 -3 25 3 37 21 14 22 16 40 10 105 -6 75 -5 79 16 84 18 5 19 8 9
21 -11 13 -10 17 3 22 9 3 16 12 16 19 0 6 9 20 20 30 27 24 25 49 -5 69 -18
12 -25 13 -25 4 0 -10 -2 -10 -9 0 -7 11 -9 11 -14 -1 -7 -20 3 -29 18 -17 9
7 16 6 25 -5 11 -13 10 -14 -5 -9 -13 5 -16 4 -11 -4 5 -9 0 -9 -19 -2 -27 10
-45 6 -45 -10 0 -4 11 -12 25 -17 17 -6 22 -12 16 -22 -11 -17 -54 -5 -45 12
4 7 3 8 -1 4 -15 -13 -15 -39 0 -33 19 7 30 -13 16 -27 -14 -14 -65 8 -55 25
4 6 3 8 -3 5 -6 -4 -19 0 -29 8 -15 11 -17 16 -6 27 10 10 17 10 32 0 14 -8
21 -9 26 0 4 6 3 8 -4 4 -6 -3 -18 4 -26 16 -20 28 -20 39 -2 32 9 -3 17 3 21
15 7 23 24 24 41 2 9 -11 12 -12 19 -1 5 8 1 18 -10 27 -22 16 -12 17 17 2 11
-6 22 -8 25 -6 7 8 -53 37 -76 37 -11 0 -27 -7 -35 -16z m3 -184 c41 -26 50
-36 36 -39 -17 -3 -16 -5 6 -17 23 -14 23 -15 -11 -8 -40 7 -73 29 -110 70
-14 16 -17 22 -7 15 23 -18 34 -7 16 16 -16 19 -21 21 70 -37z m5 -273 c-19
-32 -27 -38 -35 -25 -14 21 -10 36 9 41 23 5 34 -2 26 -16z"/>
<path d="M190 1457 c-24 -12 -25 -18 -25 -92 0 -59 -3 -79 -12 -77 -18 3 -16
-13 2 -28 21 -18 19 -26 -16 -70 -19 -24 -29 -45 -25 -55 3 -9 2 -13 -3 -10
-6 3 -12 -16 -16 -42 -3 -27 -10 -70 -15 -96 -6 -27 -10 -55 -10 -62 0 -16 27
-45 42 -45 6 0 0 9 -13 21 -21 18 -21 20 -4 14 11 -4 29 -9 40 -11 17 -4 17
-3 -2 7 -13 7 -23 19 -24 28 0 10 -2 12 -6 4 -7 -18 -23 -16 -23 2 0 9 10 15
23 16 17 1 18 2 4 6 -9 2 -15 9 -11 14 3 5 10 7 15 4 5 -4 9 0 9 7 0 9 3 9 10
-2 7 -12 9 -10 7 8 -1 14 -6 21 -14 18 -15 -6 -18 10 -3 19 6 4 8 11 5 16 -4
5 -3 15 1 21 5 7 9 19 9 28 5 55 17 91 28 82 13 -11 85 -26 105 -23 8 1 12
-15 12 -54 0 -41 3 -56 13 -53 17 6 21 36 9 62 -24 49 -23 56 6 56 15 0 46 9
67 20 l40 21 23 -26 c12 -14 22 -23 22 -19 0 4 9 -1 20 -11 27 -24 25 -31 -9
-43 -22 -8 -31 -7 -35 1 -2 7 -5 4 -5 -5 -1 -11 -9 -18 -22 -18 -11 0 -27 -7
-35 -15 -21 -20 -14 -19 57 9 33 14 66 23 73 20 7 -3 16 1 19 9 6 15 -27 50
-101 106 -39 31 -42 35 -27 50 19 22 19 41 -1 41 -9 0 -14 8 -13 18 1 9 0 19
-1 22 -1 3 -3 24 -5 47 -3 51 -19 73 -53 73 -14 0 -22 -3 -18 -7 4 -4 13 -8
19 -8 7 0 12 -4 12 -10 0 -5 -4 -9 -8 -7 -34 11 -97 13 -97 3 0 -6 18 -11 43
-11 23 0 49 -5 57 -10 11 -7 5 -9 -20 -5 l-35 5 34 -11 c19 -6 30 -14 24 -17
-15 -10 -12 -44 3 -38 8 3 16 1 19 -3 14 -23 -123 -42 -155 -21 -11 7 0 10 40
11 30 1 59 1 63 0 5 -1 6 3 3 8 -3 5 -27 6 -52 3 -41 -4 -46 -3 -41 12 4 11 1
16 -11 17 -14 0 -14 2 2 8 14 5 16 10 7 15 -9 6 -9 11 -1 21 7 8 9 19 6 24 -4
5 8 12 26 14 l33 4 -30 1 c-16 1 -41 -4 -55 -11z m155 -158 c10 -15 0 -21 -47
-28 -54 -8 -122 2 -96 13 10 5 15 12 12 17 -3 5 24 9 60 9 36 0 68 -5 71 -11z
m15 -57 c0 -5 -10 -14 -22 -20 -20 -9 -17 -10 17 -5 37 4 39 3 21 -11 -32 -26
-123 -40 -168 -25 -43 14 -52 34 -11 26 24 -4 26 -4 10 8 -9 7 -17 15 -17 18
0 3 30 8 68 10 37 2 75 4 85 5 9 1 17 -2 17 -6z"/>
<path d="M1637 1159 c-30 -63 -57 -137 -61 -164 -4 -28 -9 -63 -12 -79 -5 -25
-4 -27 8 -16 8 8 14 21 14 29 1 98 4 113 22 106 13 -5 14 -3 5 6 -9 9 -5 26
15 73 14 33 30 63 34 64 4 2 8 10 8 18 0 8 7 26 16 40 9 13 14 27 10 31 -3 3
-30 -45 -59 -108z"/>
<path d="M2441 1251 c-8 -5 -15 -27 -17 -49 -1 -22 -5 -45 -9 -52 -4 -6 -4
-14 -1 -17 3 -3 -2 -12 -11 -19 -16 -11 -16 -15 -3 -39 13 -25 13 -28 -10 -46
l-25 -20 25 7 c37 10 90 52 90 72 0 10 -3 13 -8 7 -12 -16 -32 -16 -26 0 9 21
119 21 128 0 4 -10 -1 -15 -17 -16 -12 0 -16 -3 -9 -6 6 -2 12 -10 12 -16 0
-7 19 -25 43 -40 l42 -28 -47 3 c-46 3 -62 -4 -35 -16 6 -3 -7 -3 -30 0 -23 3
-50 1 -60 -5 -14 -8 0 -10 55 -8 39 1 72 4 72 7 0 3 18 4 41 2 23 -3 51 1 64
8 12 7 30 10 40 8 16 -2 13 -9 -18 -42 -20 -21 -35 -43 -34 -49 1 -6 -6 -13
-17 -15 -12 -3 -16 0 -11 8 6 9 2 9 -14 1 -11 -7 -21 -14 -21 -17 0 -3 4 -3 8
0 4 2 14 1 22 -5 12 -7 12 -9 -3 -9 -12 0 -16 -4 -11 -12 6 -10 4 -10 -8 0
-11 9 -18 10 -23 2 -3 -5 -16 -10 -28 -9 -21 0 -21 1 -2 9 16 7 17 9 3 9 -9 1
-20 -4 -23 -9 -4 -7 -12 -7 -25 0 -10 5 -25 8 -33 5 -7 -3 -38 7 -68 23 -30
16 -64 31 -77 34 -27 7 -27 16 -3 46 14 15 31 23 60 24 51 2 54 17 4 17 -21 0
-47 1 -58 3 -13 2 -19 -2 -17 -12 2 -8 -5 -20 -14 -27 -11 -8 -13 -13 -5 -13
7 0 9 -4 6 -10 -3 -5 -18 -7 -33 -4 -15 3 -46 -2 -69 -10 -26 -9 -45 -11 -48
-5 -10 16 48 79 68 74 63 -17 62 -17 47 -6 -9 7 -10 11 -3 11 6 0 15 -4 18
-10 9 -15 22 -12 22 4 0 9 -15 17 -39 21 -45 8 -73 -7 -113 -59 -22 -30 -25
-38 -15 -57 8 -14 8 -19 1 -15 -9 6 -16 -17 -13 -45 7 -60 14 -110 23 -145 11
-43 11 -43 35 -26 28 20 32 37 5 23 -15 -8 -20 -7 -24 8 -2 11 0 24 6 30 15
15 30 14 21 -1 -8 -12 9 -5 36 17 60 46 150 46 150 0 0 -13 5 -27 10 -30 6 -3
10 -12 10 -18 -1 -7 -10 -1 -22 13 -14 16 -19 19 -15 8 4 -12 1 -18 -8 -18 -8
0 -15 -4 -15 -10 0 -5 11 -10 24 -10 13 0 29 -7 36 -15 7 -8 24 -15 38 -15 41
0 101 -22 125 -45 34 -34 58 -41 112 -35 40 4 45 6 26 12 -13 4 -37 4 -53 1
-23 -5 -36 0 -61 24 -34 32 -104 63 -124 56 -7 -3 -13 0 -13 7 0 6 -4 9 -9 6
-13 -8 -42 4 -36 14 3 5 0 20 -7 35 -9 20 -9 28 2 38 10 9 11 9 6 0 -5 -9 -2
-11 9 -7 21 8 17 11 -44 34 l-52 19 -75 -35 c-41 -19 -79 -34 -85 -34 -5 0 -9
12 -8 28 1 15 -2 36 -6 46 -7 16 -5 18 11 12 34 -14 108 -18 144 -8 32 9 33
10 8 11 -15 1 -30 6 -33 11 -3 6 -11 10 -18 10 -6 0 -2 -7 9 -15 17 -13 17
-14 2 -15 -9 0 -40 5 -68 11 -46 10 -61 25 -42 43 4 4 7 13 7 19 0 5 7 12 15
14 13 4 13 3 0 -6 -9 -7 -11 -11 -3 -11 7 0 16 6 20 14 4 8 22 17 38 21 l30 6
-24 -18 c-14 -10 -34 -26 -45 -36 -19 -17 -19 -18 -2 -13 10 4 26 1 35 -6 14
-12 14 -11 2 4 -14 19 -16 17 35 33 8 3 12 10 8 16 -8 13 11 4 36 -17 8 -7 46
-28 84 -48 85 -45 143 -47 235 -11 35 13 69 29 75 35 9 7 19 3 36 -15 13 -14
20 -25 15 -25 -4 0 4 -9 19 -21 35 -27 24 -43 -25 -35 -24 4 -39 2 -39 -4 0
-5 9 -10 20 -10 23 0 26 -19 8 -40 -7 -8 4 0 25 18 21 18 41 32 45 32 16 0 60
-56 91 -114 17 -32 31 -53 31 -45 -2 35 -62 124 -141 207 -74 79 -87 88 -96
74 -7 -10 -12 -12 -12 -5 -1 7 10 25 24 40 13 15 25 23 25 16 0 -6 -5 -15 -10
-18 -6 -4 -7 -11 -4 -17 11 -17 24 13 24 55 l0 37 -51 0 c-36 0 -48 -3 -43
-12 4 -6 -9 1 -29 16 -39 30 -47 50 -22 60 19 7 19 35 0 42 -8 4 -12 10 -9 15
2 5 0 18 -6 29 -7 13 -7 20 0 20 15 0 12 43 -4 65 -11 15 -29 20 -82 23 -38 1
-75 -1 -83 -7z m134 -12 c9 -14 14 -62 8 -72 -3 -4 -11 -3 -19 4 -9 8 -32 10
-65 6 -37 -5 -49 -3 -46 6 2 7 30 15 63 18 l59 6 -65 2 c-58 3 -61 4 -30 11
19 5 47 6 63 3 18 -4 27 -1 27 7 0 9 -16 11 -59 8 -33 -2 -58 -1 -55 4 8 12
112 10 119 -3z m-27 -85 c70 -9 47 -30 -29 -25 -68 3 -88 9 -70 20 16 10 51
12 99 5z"/>
<path d="M1092 1183 c-7 -3 -31 -38 -53 -79 -23 -41 -44 -74 -47 -74 -4 0 -8
-12 -8 -26 -2 -33 0 -30 40 52 18 38 46 84 61 102 15 18 25 32 23 31 -1 0 -9
-3 -16 -6z"/>
<path d="M1830 1154 c0 -9 -5 -12 -11 -8 -9 5 -10 -1 -5 -20 4 -15 2 -26 -4
-26 -5 0 -10 5 -10 10 0 6 -7 10 -15 10 -12 0 -13 -5 -3 -24 10 -23 12 -23 26
-9 10 10 17 12 20 5 2 -6 10 -8 18 -5 11 4 12 9 3 19 -6 8 -9 25 -7 39 3 14 1
25 -3 25 -5 0 -9 -7 -9 -16z"/>
<path d="M485 1092 c-6 -4 -23 -22 -38 -40 -15 -19 -27 -28 -27 -22 0 6 -5 8
-10 5 -6 -4 -8 -10 -5 -15 6 -9 -33 -26 -49 -21 -5 1 -4 -4 2 -12 10 -11 9
-17 -3 -27 -8 -7 -15 -11 -16 -9 0 2 -3 20 -5 39 -2 19 -5 41 -6 48 -1 7 -8
10 -15 7 -8 -3 -19 -5 -24 -5 -14 0 -31 -51 -23 -69 4 -9 6 -20 5 -25 -1 -5 1
-16 5 -25 4 -9 8 -23 9 -31 1 -8 5 -30 9 -48 7 -29 5 -34 -13 -39 -12 -3 -21
-9 -21 -14 0 -5 -6 -6 -14 -3 -8 3 -11 15 -9 32 4 25 3 26 -10 9 -11 -13 -16
-15 -19 -5 -3 7 -7 2 -10 -10 -5 -19 -2 -24 23 -29 16 -3 32 -10 35 -15 3 -5
15 -1 26 9 14 13 19 14 16 3 -2 -8 3 -15 10 -16 6 -1 16 -2 21 -3 5 0 11 -10
14 -21 3 -11 10 -20 16 -20 16 0 13 30 -3 36 -36 14 -26 52 39 143 62 87 116
184 108 192 -4 4 -13 5 -18 1z m-25 -76 c-24 -38 -46 -63 -53 -59 -6 4 -8 0
-4 -11 4 -10 1 -19 -7 -22 -8 -3 -17 -16 -20 -30 -9 -35 -26 -29 -26 9 0 28
12 46 73 108 39 41 73 73 75 72 2 0 -15 -31 -38 -67z m-137 -16 c4 -17 0 -20
-24 -20 -16 0 -29 5 -29 10 0 6 7 10 15 10 8 0 15 7 15 16 0 20 16 9 23 -16z
m-8 -49 c-3 -5 2 -17 11 -26 9 -9 13 -19 10 -23 -4 -3 -11 -1 -15 6 -4 7 -14
12 -21 10 -7 -2 -15 3 -17 10 -3 8 1 10 12 6 9 -4 15 -3 14 2 -2 14 0 24 7 24
3 0 3 -4 -1 -9z m11 -76 c9 -19 9 -27 -1 -35 -10 -8 -15 -4 -23 19 -16 45 5
58 24 16z"/>
<path d="M2484 1055 c-18 -13 -16 -14 25 -15 37 0 42 2 31 15 -16 19 -31 19
-56 0z"/>
<path d="M1708 989 c-38 -22 -68 -42 -68 -45 0 -4 61 23 102 46 13 8 16 6 12
-5 -4 -8 -10 -15 -16 -15 -5 0 -6 -5 -3 -11 5 -6 13 -3 22 10 8 12 19 18 25
15 6 -4 5 3 -2 16 -7 13 -8 20 -2 16 6 -3 13 -2 17 4 13 21 -22 9 -87 -31z"/>
<path d="M209 984 c-19 -15 -26 -24 -17 -21 11 4 21 -1 28 -13 13 -25 13 -30
-5 -30 -8 0 -15 5 -15 10 0 6 -8 2 -18 -7 -11 -10 -17 -21 -15 -25 2 -5 0 -8
-6 -8 -11 0 -54 -67 -58 -89 -2 -19 15 -51 29 -51 7 0 7 5 -1 14 -10 11 -9 24
0 55 7 23 16 41 20 41 5 0 6 -7 3 -15 -5 -11 -2 -13 10 -9 19 7 21 20 4 30 -7
5 6 12 33 19 51 13 60 10 34 -9 -13 -10 -15 -15 -6 -21 18 -10 43 18 35 38 -3
9 -10 17 -15 17 -5 0 -6 12 -3 26 4 17 2 29 -7 34 -10 7 -10 11 0 24 19 23 10
20 -30 -10z"/>
<path d="M1684 950 c-12 -4 -24 -15 -27 -24 -4 -9 -11 -16 -17 -16 -6 0 -8 5
-4 11 3 6 -5 3 -20 -6 -14 -10 -26 -22 -26 -28 0 -7 4 -7 12 1 7 7 17 12 23
12 11 -1 -24 -24 -40 -26 -5 0 -16 -2 -22 -2 -7 -1 -13 -8 -13 -16 0 -7 -9
-25 -20 -39 l-21 -26 40 -93 c55 -131 69 -194 76 -343 9 -206 29 -250 108
-239 45 6 89 23 83 33 -2 3 9 7 25 8 16 1 29 -2 29 -7 0 -6 -10 -10 -22 -11
-13 0 -18 -3 -12 -5 5 -2 35 0 65 5 38 6 45 9 24 11 -25 1 -27 3 -10 9 10 4
32 3 47 -3 22 -8 35 -7 56 4 34 19 38 47 22 165 -15 117 -96 574 -103 581 -6
6 0 -113 6 -123 3 -5 9 -25 12 -43 3 -18 8 -38 12 -43 3 -5 7 -37 9 -70 6 -85
6 -87 15 -81 4 2 8 -4 8 -13 0 -34 21 -206 26 -224 10 -31 12 -108 2 -102 -4
3 -7 -3 -5 -12 2 -10 -4 -20 -12 -22 -12 -4 -12 -3 -1 5 10 7 10 11 1 17 -7 4
-15 2 -19 -4 -5 -8 -21 -8 -62 0 -77 16 -92 13 -143 -23 l-46 -32 -24 23 c-13
12 -27 18 -30 13 -3 -5 4 -12 15 -15 12 -3 18 -10 14 -16 -11 -18 -32 -12 -49
15 -17 24 -16 26 13 59 16 19 38 59 47 89 10 30 20 53 23 51 9 -5 6 62 -3 103
-6 26 -5 32 8 32 9 0 16 4 16 9 0 5 -8 7 -19 4 -19 -5 -31 19 -31 65 0 12 -5
22 -11 22 -5 0 -7 5 -4 10 3 6 2 10 -3 10 -17 0 -22 127 -7 171 20 56 12 62
-9 7 -24 -62 -17 -152 18 -233 21 -47 30 -99 17 -91 -6 4 -11 2 -11 -4 0 -7 7
-10 15 -6 22 8 20 -57 -6 -129 -25 -74 -45 -105 -65 -105 -13 0 -15 12 -12 70
2 39 1 70 -2 70 -3 0 -5 24 -5 53 0 28 -3 70 -7 92 -7 34 -6 36 3 15 7 -16 13
-20 16 -12 3 7 -7 31 -21 52 -14 22 -27 48 -29 57 -1 10 -6 24 -10 31 -5 6 -5
12 0 12 4 0 3 4 -3 8 -20 13 -47 86 -33 91 7 2 37 17 68 34 31 17 70 37 87 45
27 13 32 21 31 48 -1 37 -9 37 -12 1 -1 -16 -20 -33 -71 -62 -38 -22 -81 -46
-96 -53 -78 -34 26 91 142 170 27 18 19 22 -16 8z"/>
<path d="M1764 952 c3 -5 2 -12 -3 -14 -6 -1 -2 -14 8 -27 12 -16 23 -21 31
-16 10 6 8 10 -9 17 -15 5 -21 14 -17 23 3 8 0 17 -6 21 -6 4 -8 3 -4 -4z"/>
<path d="M1237 913 c-4 -3 -1 -13 6 -22 14 -16 40 -93 41 -121 1 -8 -6 -21
-14 -28 -13 -11 -13 -12 0 -10 9 2 16 -6 18 -21 2 -13 0 -21 -5 -18 -5 3 -15
1 -23 -5 -12 -8 -12 -9 2 -4 10 3 20 1 23 -5 11 -16 14 -240 4 -233 -5 3 -7
10 -4 15 4 5 1 9 -4 9 -16 0 -13 -21 5 -41 10 -11 17 -43 20 -92 3 -68 2 -75
-20 -95 -20 -16 -25 -18 -30 -6 -3 8 -4 20 -2 27 1 6 1 9 -1 5 -3 -5 -23 -8
-46 -8 l-42 1 29 21 c25 19 72 105 63 115 -2 2 -19 -20 -38 -49 -22 -33 -45
-55 -63 -61 -26 -9 -32 -6 -62 29 -18 22 -33 34 -34 27 0 -6 4 -14 9 -17 14
-9 32 -66 20 -66 -5 0 -18 9 -29 20 l-20 20 0 -30 c0 -27 -3 -30 -32 -30 -45
1 -115 34 -123 59 -3 12 -10 21 -14 21 -10 0 -33 51 -27 57 3 3 -1 12 -9 20
-8 8 -15 23 -15 33 0 10 -7 31 -15 46 -8 16 -12 37 -9 48 4 12 2 16 -4 12 -6
-4 -16 2 -21 13 -15 28 -14 31 12 32 l22 0 -22 11 c-28 14 -35 42 -13 56 11 6
49 9 91 7 73 -3 73 -3 29 8 -51 14 -151 10 -129 -4 10 -6 6 -9 -14 -9 -16 0
-26 4 -22 10 3 6 1 10 -6 10 -10 0 -10 3 -1 12 17 17 15 24 -8 25 -11 1 -20
-1 -20 -4 0 -9 55 -108 62 -111 4 -2 5 -9 2 -16 -6 -14 78 -240 127 -343 30
-64 68 -103 99 -103 10 0 37 16 60 35 43 36 56 43 45 24 -7 -10 21 -49 34 -49
4 0 7 9 8 20 1 11 -2 20 -8 20 -5 0 -9 6 -9 14 0 20 51 29 118 21 102 -12 107
6 85 321 -6 83 -9 163 -6 177 3 15 1 27 -5 27 -6 0 -8 9 -5 20 3 11 -5 48 -17
83 -25 68 -33 81 -43 70z m-282 -705 c34 -2 95 12 95 22 0 6 8 10 17 10 9 0
24 7 34 16 15 14 22 14 73 -1 31 -9 56 -19 56 -21 0 -3 -8 -3 -18 0 -9 3 -32
2 -50 -3 -20 -6 -32 -6 -32 0 0 15 -28 10 -38 -7 -5 -9 -21 -16 -35 -16 -14 0
-26 -3 -25 -7 2 -19 -4 -22 -19 -10 -15 12 -16 12 -10 -4 8 -22 -12 -46 -33
-39 -22 7 -58 51 -81 97 l-20 40 33 -38 c18 -21 42 -39 53 -39z"/>
<path d="M887 825 c-10 -11 -27 -29 -37 -40 -12 -13 -16 -25 -11 -34 6 -9 11
-10 15 -2 4 6 4 16 1 21 -4 6 -3 9 2 8 4 -2 20 10 35 25 15 15 37 27 50 27 13
0 29 4 35 8 7 5 -6 8 -30 7 -29 0 -47 -6 -60 -20z"/>
<path d="M144 795 c2 -16 5 -39 5 -51 1 -12 9 -30 19 -42 18 -21 19 -21 16 28
-2 34 -10 57 -24 73 l-21 22 5 -30z"/>
<path d="M263 729 c-33 -33 -53 -32 -53 3 0 44 -11 8 -15 -48 -2 -35 0 -51 5
-39 5 14 9 3 11 -38 2 -32 1 -61 -3 -65 -11 -12 4 -93 19 -99 10 -4 9 -9 -7
-23 -19 -17 -19 -17 6 -29 14 -6 30 -9 35 -6 5 4 9 1 9 -5 0 -6 5 -8 10 -5 6
3 13 -1 16 -9 8 -20 24 -11 23 12 0 11 -2 13 -6 4 -7 -19 -31 3 -49 46 -13 31
-12 36 7 63 11 16 25 29 30 29 5 0 19 21 30 46 11 26 22 44 25 41 11 -11 -18
-78 -47 -109 -18 -20 -25 -36 -19 -42 5 -5 6 -22 3 -37 -11 -59 42 -17 56 43
1 4 9 27 18 50 9 24 19 62 22 86 6 43 26 55 26 15 -1 -16 3 -19 11 -12 17 14
25 -3 22 -46 -1 -20 -9 -41 -18 -48 -13 -11 -13 -10 -1 6 8 10 9 17 3 17 -6 0
-9 7 -6 15 4 8 1 15 -6 15 -8 0 -10 -8 -7 -22 4 -12 1 -29 -6 -37 -8 -10 -8
-13 -1 -8 7 4 15 0 18 -9 3 -8 2 -13 -3 -10 -4 3 -16 0 -25 -7 -15 -11 -16
-19 -6 -62 6 -27 16 -53 23 -57 8 -5 3 -17 -19 -38 l-31 -31 -35 21 c-20 11
-39 28 -42 37 -4 9 -9 13 -12 10 -3 -3 -25 1 -47 10 -43 16 -137 18 -147 4 -6
-10 -40 -10 -40 -1 0 11 26 31 32 25 3 -3 11 9 18 27 13 32 49 75 60 71 3 0
14 11 25 25 19 26 18 26 -24 -5 -24 -18 -52 -45 -62 -60 -11 -15 -30 -43 -43
-61 l-25 -33 27 -50 c27 -53 33 -59 120 -114 105 -66 225 -54 265 25 14 29 16
49 11 110 -11 116 -11 170 -2 176 4 3 15 18 23 34 17 33 10 51 -54 126 -32 38
-36 40 -53 25 -10 -8 -18 -21 -18 -28 0 -7 -4 -13 -10 -13 -15 0 -12 16 6 34
12 12 13 20 4 33 -10 16 -11 16 -6 1 3 -11 -1 -16 -13 -15 -18 1 -21 22 -7 45
4 7 5 16 2 19 -3 4 -6 0 -6 -8 0 -10 -2 -11 -8 -2 -6 9 -17 4 -39 -18z m3 -68
c-5 -13 -4 -13 8 2 19 24 33 21 39 -8 2 -14 2 -23 -1 -21 -7 8 -41 -38 -35
-48 3 -4 9 -2 14 5 8 12 11 11 20 -1 9 -13 10 -13 6 1 -6 18 10 39 30 39 14 0
-52 -99 -68 -101 -5 -1 -13 -3 -19 -4 -5 -1 -13 -3 -16 -4 -4 0 -1 -8 6 -16 9
-11 9 -19 -3 -35 -19 -27 -31 -10 -22 30 4 16 5 31 3 33 -7 9 26 37 39 33 10
-4 11 -1 3 14 -5 10 -15 22 -20 25 -6 4 -8 10 -5 15 3 5 1 19 -5 30 -13 25 -5
41 16 33 9 -3 13 -12 10 -22z m-97 -327 c-7 -8 -21 -13 -31 -11 -10 3 -18 1
-18 -4 0 -13 34 -11 65 3 17 7 29 8 33 2 4 -5 20 -15 35 -22 16 -7 27 -18 24
-25 -6 -15 20 -67 34 -67 6 0 7 -5 3 -12 -4 -6 -3 -8 3 -5 6 4 14 0 17 -9 4
-9 9 -14 13 -11 3 4 -6 22 -21 41 -33 44 -33 56 0 56 23 0 25 -3 20 -25 -4
-15 -2 -25 4 -25 6 0 20 -8 30 -18 19 -18 19 -18 -18 -32 -56 -21 -107 -17
-78 5 18 14 19 15 2 15 -12 0 -16 5 -13 14 3 8 -1 17 -9 20 -9 3 -12 1 -9 -4
3 -6 0 -10 -7 -11 -10 0 -10 -2 0 -6 6 -2 12 -11 12 -18 0 -26 -29 -23 -81 11
-29 19 -61 37 -71 40 -24 7 -23 21 2 29 11 3 20 11 20 16 0 6 -7 6 -19 -1 -29
-15 -39 -12 -47 13 -14 39 -10 42 51 48 33 3 62 6 64 7 2 1 -2 -5 -10 -14z
m261 -67 c-1 -40 -1 -41 -16 -22 -15 19 -15 19 -9 -7 10 -38 -9 -36 -28 2 -13
25 -13 31 -1 41 11 9 14 9 14 0 0 -7 5 -9 10 -6 6 4 8 11 5 16 -8 12 4 31 16
24 5 -4 9 -25 9 -48z"/>
<path d="M2260 660 c-19 -11 -42 -19 -51 -20 -12 0 -15 -7 -11 -26 4 -20 17
-32 56 -50 28 -13 65 -23 81 -23 17 0 24 3 18 6 -29 11 -10 21 37 19 27 -2 47
1 44 5 -3 5 -29 9 -59 9 -78 0 -155 18 -155 37 0 10 6 13 16 9 10 -4 24 0 33
9 9 9 25 22 36 30 31 22 -3 18 -45 -5z"/>
<path d="M946 652 c-13 -12 -5 -22 19 -22 14 0 25 4 25 9 0 10 -36 21 -44 13z"/>
<path d="M2862 627 c60 -17 63 -57 4 -57 -18 0 -57 -5 -87 -10 -30 -6 -106
-17 -169 -24 -63 -8 -98 -14 -77 -15 23 -1 36 -5 32 -11 -4 -6 5 -10 20 -10
14 0 24 4 21 9 -7 11 108 36 128 28 9 -4 18 -2 22 4 4 6 11 6 20 -2 7 -6 11
-15 8 -21 -3 -5 -11 -5 -18 2 -10 7 -20 4 -40 -11 -14 -11 -26 -16 -26 -10 0
6 5 11 11 11 5 0 7 5 3 11 -8 14 -19 2 -47 -52 -20 -39 -26 -44 -60 -47 -29
-3 -47 3 -73 23 -19 14 -32 29 -30 33 7 12 -19 41 -48 52 -35 13 -83 13 -91
-1 -4 -6 -13 -8 -21 -5 -23 9 -16 -10 9 -21 15 -7 27 -28 39 -70 23 -79 50
-113 92 -113 17 0 41 7 54 15 12 9 45 19 74 22 48 6 52 5 39 -10 -7 -9 -11
-24 -7 -32 4 -12 -3 -15 -37 -15 -24 0 -48 4 -55 10 -7 5 -4 1 6 -10 27 -30
91 -15 112 25 8 17 16 32 17 34 2 2 26 -8 53 -23 44 -24 54 -26 84 -16 27 9
38 21 59 68 36 81 48 114 39 108 -5 -3 -21 -37 -36 -76 -29 -74 -59 -100 -95
-84 -9 4 -22 8 -30 8 -8 1 -15 9 -17 18 -2 17 12 18 62 3 30 -9 94 83 94 134
0 14 5 18 20 14 14 -4 20 0 20 11 0 11 -7 16 -17 14 -24 -4 -41 -20 -37 -33
10 -25 -112 -112 -141 -101 -8 3 -16 18 -16 33 -1 15 -3 21 -6 11 -2 -9 -15
-19 -29 -22 -30 -8 -33 -39 -2 -34 11 2 23 -1 25 -7 2 -6 -25 -10 -67 -11 -39
0 -64 3 -58 8 15 9 -42 11 -66 2 -9 -3 -16 -17 -16 -30 0 -19 -5 -24 -24 -24
-13 0 -30 7 -37 16 -13 15 -11 17 18 12 18 -2 30 -1 27 4 -3 4 -16 8 -29 8
-13 0 -31 10 -40 22 -21 31 -1 36 36 9 32 -24 47 -28 30 -8 -6 8 -29 22 -51
32 -29 13 -37 21 -30 30 7 9 6 16 -5 25 -8 7 -12 17 -9 22 4 6 10 5 14 -3 7
-10 11 -10 24 0 13 11 19 11 31 1 8 -7 15 -17 15 -23 0 -5 -9 -2 -19 7 -11 10
-21 13 -25 7 -5 -8 19 -22 44 -26 3 0 19 -15 37 -33 25 -26 39 -32 73 -32 53
0 74 12 90 49 10 26 23 33 87 52 41 12 77 29 80 36 4 10 9 11 18 3 7 -6 16 -7
19 -2 3 5 21 9 41 10 21 1 33 -3 30 -8 -3 -6 -1 -10 4 -10 19 0 12 28 -16 62
-15 18 -27 33 -27 34 -1 1 -21 4 -46 7 l-45 5 37 -11z m-13 -219 c-16 -31 -14
-29 -32 -22 -13 5 -11 10 11 29 32 27 38 25 21 -7z"/>
<path d="M2497 609 c6 -6 30 -12 54 -14 24 -3 35 -2 24 1 -79 21 -88 23 -78
13z"/>
<path d="M1780 441 c11 -22 29 -42 40 -46 11 -4 17 -11 14 -17 -4 -7 -2 -8 4
-4 7 4 12 16 12 28 0 16 -4 19 -25 14 -19 -5 -23 -3 -19 9 4 8 1 15 -4 15 -6
0 -14 9 -17 20 -3 11 -11 20 -16 20 -5 0 0 -18 11 -39z"/>
<path d="M143 443 c-18 -7 -16 -23 3 -23 8 0 12 5 9 10 -3 6 -2 10 4 10 5 0
11 -10 13 -22 3 -21 4 -21 9 5 6 27 -6 34 -38 20z"/>
<path d="M338 405 c-8 -8 2 -45 13 -45 5 0 9 -9 9 -19 0 -11 5 -23 10 -26 14
-9 11 14 -8 58 -10 21 -20 36 -24 32z"/>
<path d="M1856 385 c-8 -22 -8 -36 2 -33 4 2 40 -30 81 -70 40 -39 76 -72 79
-72 3 0 -4 10 -16 23 -12 13 -20 27 -17 30 3 4 2 5 -2 2 -11 -9 -72 56 -66 71
3 9 0 12 -9 9 -10 -4 -20 5 -30 25 -12 25 -17 28 -22 15z"/>
</g>
</svg>
