<?xml version="1.0" standalone="no"?>
<!DOCTYPE svg PUBLIC "-//W3C//DTD SVG 20010904//EN"
 "http://www.w3.org/TR/2001/REC-SVG-20010904/DTD/svg10.dtd">
<svg version="1.0" xmlns="http://www.w3.org/2000/svg"
 width="300.000000pt" height="168.000000pt" viewBox="0 0 300.000000 168.000000"
 preserveAspectRatio="xMidYMid meet">
<metadata>
Created by potrace 1.10, written by Peter Selinger 2001-2011
</metadata>
<g transform="translate(0.000000,168.000000) scale(0.100000,-0.100000)"
fill="#000000" stroke="none">
<path d="M1441 1451 c3 -49 -2 -56 -31 -41 -16 9 -25 9 -36 -1 -11 -9 -18 -8
-32 4 -14 13 -21 14 -30 5 -7 -7 -12 -16 -12 -22 0 -5 -12 -25 -26 -45 l-26
-36 29 31 c15 17 33 38 38 47 6 10 15 14 22 9 17 -11 20 -36 4 -37 -7 0 -20
-11 -28 -25 -15 -25 -15 -25 4 -4 11 13 25 18 36 15 16 -6 16 -9 -3 -44 -15
-27 -19 -51 -17 -92 3 -40 0 -55 -9 -55 -7 0 -16 -5 -20 -12 -5 -8 -2 -9 9 -5
10 4 23 10 31 13 15 6 46 -61 46 -101 0 -21 -5 -25 -27 -25 -25 -1 -26 -2 -10
-11 18 -10 18 -12 -2 -26 -12 -8 -19 -18 -16 -23 3 -5 1 -11 -4 -14 -5 -3 -11
1 -15 9 -3 8 -1 15 5 15 6 0 8 4 4 9 -3 5 3 12 12 14 17 4 17 5 0 6 -10 0 -20
-6 -23 -14 -4 -10 -13 -13 -26 -10 -15 5 -14 2 7 -19 14 -14 25 -32 25 -41 0
-28 -28 -15 -59 28 -16 23 -37 50 -46 59 -16 15 -15 17 7 31 12 8 49 23 81 33
42 13 54 20 42 26 -8 5 -23 8 -32 6 -10 -2 -18 2 -18 7 -1 14 -17 38 -37 53
-15 12 -16 9 -11 -28 5 -38 -9 -57 -20 -27 -4 7 -6 6 -6 -4 -1 -9 -10 -19 -22
-22 -12 -3 -18 -3 -15 0 3 4 -3 12 -14 20 -22 15 -51 61 -31 49 6 -4 11 0 11
8 0 12 8 14 33 11 l32 -5 -35 11 c-19 6 -51 9 -72 7 -29 -3 -37 0 -33 10 3 8
5 16 5 18 0 2 5 4 11 4 6 0 17 7 26 16 9 8 21 13 28 10 8 -3 16 2 19 11 4 10
14 13 30 9 15 -4 28 0 36 9 9 11 9 15 1 15 -7 0 -10 4 -7 9 3 5 -7 11 -23 14
-20 4 -31 14 -35 32 -8 31 -27 32 -77 3 -41 -23 -48 -39 -26 -63 10 -11 19
-10 55 11 39 23 44 24 64 10 21 -15 20 -16 -27 -36 -36 -15 -51 -18 -61 -9
-11 9 -17 5 -28 -22 -13 -30 -12 -37 5 -70 14 -28 15 -39 6 -42 -6 -3 0 -6 14
-6 14 -1 32 -7 41 -13 24 -20 159 -288 145 -288 -7 0 -22 -6 -33 -14 -15 -12
-17 -17 -6 -27 6 -7 12 -24 12 -37 0 -21 1 -22 16 -8 8 9 19 16 24 16 5 0 16
3 24 6 12 4 15 2 11 -9 -5 -12 2 -14 38 -11 33 2 49 -1 61 -15 19 -21 78 -177
78 -206 -1 -63 12 -118 31 -136 11 -10 17 -19 12 -19 -5 0 -1 -6 10 -13 18
-14 14 -37 -6 -37 -6 0 -7 5 -4 10 4 6 -5 5 -20 -2 -16 -7 -21 -14 -14 -19 19
-11 -28 -21 -49 -10 -10 5 -26 9 -37 8 -12 -1 -21 5 -23 18 -3 11 -19 36 -37
57 -26 28 -75 116 -75 133 0 2 10 1 22 -3 14 -3 19 -2 14 6 -4 7 -15 12 -26
12 -11 0 -31 20 -50 50 -27 43 -31 56 -27 97 3 26 8 55 11 63 5 11 -7 24 -37
43 -23 15 -50 36 -60 47 -9 11 -25 20 -35 20 -25 0 -49 31 -94 126 -35 73 -38
85 -27 106 7 12 12 31 10 41 -1 11 4 17 18 17 25 0 45 32 29 48 -6 6 -17 8
-24 5 -16 -6 -19 24 -5 46 8 13 12 13 28 1 17 -14 17 -13 -1 7 -10 12 -30 23
-45 25 -18 2 -27 10 -29 26 -4 27 -28 28 -60 4 -23 -18 -23 -18 -3 -40 16 -20
17 -27 8 -53 -11 -27 -9 -37 16 -80 18 -33 27 -64 27 -93 l0 -44 -35 11 c-26
8 -35 16 -35 32 0 26 18 45 43 45 16 0 17 2 7 16 -16 19 -81 15 -88 -5 -3 -9
0 -11 9 -6 8 5 4 -3 -8 -17 -13 -13 -23 -34 -23 -46 0 -12 -5 -22 -12 -22 -6
0 -4 -7 5 -18 21 -23 22 -46 2 -39 -10 4 -4 -15 17 -58 18 -35 30 -66 27 -68
-2 -3 -13 -7 -25 -11 -22 -7 -23 -3 -48 169 -13 89 -29 114 -89 144 -21 10
-33 25 -35 41 -5 36 -15 42 -56 34 -42 -7 -55 -27 -37 -56 10 -16 7 -25 -17
-56 -16 -20 -32 -48 -35 -61 -6 -24 49 -293 89 -434 4 -12 -4 -22 -28 -33 -25
-11 -27 -14 -8 -10 l25 5 -24 -20 c-13 -10 -19 -19 -15 -19 21 -1 -32 -30 -54
-30 -14 0 -21 -4 -16 -11 3 -6 14 -9 24 -6 13 3 6 -13 -27 -61 -25 -38 -40
-68 -34 -70 6 -2 9 -7 7 -11 -3 -4 4 -7 15 -7 24 0 25 12 2 25 -16 9 -16 10
-2 11 9 0 31 -10 50 -23 19 -13 42 -26 52 -30 35 -13 16 -26 -41 -27 -31 0
-75 -1 -97 -2 -22 -1 -62 -1 -90 0 -143 7 -189 3 -173 -14 55 -55 2317 -62
2586 -8 37 8 43 24 9 24 -25 0 -60 30 -55 47 3 10 -131 123 -146 123 -12 0
-14 2 64 -60 36 -29 65 -56 65 -60 0 -5 3 -12 8 -16 14 -15 7 -24 -20 -24 -51
0 -73 11 -73 35 0 26 -39 86 -60 93 -8 3 0 -11 18 -32 17 -20 32 -41 32 -46 0
-12 -36 -8 -47 5 -5 4 -2 5 5 1 6 -4 12 -3 12 2 0 5 -16 17 -35 28 -19 10 -35
24 -35 30 0 7 -7 14 -15 18 -9 3 -19 15 -24 28 l-8 22 -5 -22 c-4 -12 -3 -20
2 -17 16 10 21 -83 6 -119 -15 -35 -47 -49 -60 -27 -3 5 -14 7 -24 4 -11 -2
-34 2 -53 10 -19 8 -43 11 -53 7 -10 -3 -37 -3 -60 0 -37 5 -41 8 -38 32 1 14
-7 43 -20 63 l-21 38 21 -12 c18 -9 22 -9 20 1 -2 7 -8 17 -14 23 -6 5 -14 20
-17 33 -4 17 -1 22 13 22 11 0 22 -5 25 -10 3 -6 13 -10 20 -10 10 0 7 7 -8
22 -12 13 -23 20 -25 17 -1 -3 -14 -4 -27 -1 -27 5 -32 -7 -13 -26 9 -9 8 -12
-3 -15 -8 -2 -30 -9 -49 -16 -63 -22 -83 -20 -122 11 -21 16 -38 36 -38 43 0
16 -30 35 -54 35 -9 0 -16 -7 -16 -15 0 -11 -11 -15 -39 -15 -44 0 -59 -13
-41 -35 9 -11 3 -21 -27 -48 -36 -33 -38 -34 -51 -16 -7 10 -21 19 -30 19 -11
0 -13 3 -6 8 7 4 32 55 57 114 46 111 58 129 92 141 20 7 20 7 0 -9 -12 -10
-14 -15 -5 -12 8 3 20 15 27 29 34 67 101 78 115 19 3 -15 174 -73 195 -65 6
2 14 -3 17 -11 3 -8 13 -14 22 -14 13 0 16 -7 11 -34 -8 -51 5 -53 20 -4 15
50 16 69 4 49 -5 -7 -14 -10 -20 -7 -6 4 -8 12 -5 18 4 7 2 8 -4 4 -7 -4 -12
-2 -12 4 0 8 -10 9 -29 5 -25 -5 -31 -2 -37 17 -5 13 -9 31 -9 40 0 31 -18 24
-30 -11 -10 -32 -12 -33 -28 -17 -25 25 -21 46 8 46 41 0 28 18 -17 25 -24 4
-50 11 -59 16 -9 4 -20 4 -25 0 -5 -5 -28 -11 -51 -14 -34 -4 -43 -2 -43 10 0
12 7 14 30 9 19 -3 29 -2 25 4 -3 6 -15 10 -26 10 -35 0 -60 20 -79 63 -14 31
-19 36 -19 20 -1 -12 -8 -29 -17 -37 -8 -9 -12 -16 -7 -16 5 0 13 4 19 10 6 6
19 -3 37 -26 25 -31 27 -38 18 -67 -8 -23 -24 -40 -57 -57 l-45 -25 -25 28
c-31 36 -30 65 2 112 14 21 27 54 28 73 3 29 9 38 30 43 21 6 32 2 51 -17 14
-14 29 -23 34 -19 12 7 73 -26 78 -42 2 -6 -4 -13 -14 -16 -15 -4 -15 -5 3 -6
11 0 26 -7 33 -13 10 -11 11 -10 6 4 -6 14 1 19 34 24 23 4 41 11 41 16 0 6
-10 7 -22 4 -47 -14 -58 -14 -64 -4 -4 6 -3 8 3 5 6 -4 19 0 29 8 18 14 17 15
-8 9 -44 -10 -33 4 22 28 39 17 50 27 50 45 0 13 5 23 11 23 5 0 8 4 5 9 -11
16 27 22 44 6 9 -8 22 -15 30 -15 22 0 -37 40 -62 41 -16 1 -18 3 -6 6 16 4
17 7 3 34 -14 27 -14 29 2 29 10 0 45 -14 78 -30 33 -17 60 -30 60 -30 6 1 2
96 -5 115 -8 20 -6 32 5 48 21 30 19 34 -16 52 -36 19 -59 14 -59 -15 0 -16
-7 -20 -32 -20 -18 0 -45 -7 -60 -14 -26 -14 -29 -13 -38 5 -9 16 -3 29 35 76
41 50 46 61 40 91 -6 30 -3 38 21 57 l28 22 -29 27 -30 28 -17 -23 c-14 -16
-16 -25 -7 -35 7 -9 8 -14 1 -14 -5 0 -8 -9 -5 -20 4 -14 -4 -28 -28 -47 -19
-16 -52 -47 -74 -71 -32 -33 -48 -42 -71 -41 -16 2 -39 -1 -51 -5 -32 -10 -29
10 5 31 15 10 37 28 48 42 12 13 26 21 32 17 6 -3 13 -2 17 4 3 5 1 10 -4 10
-18 0 -12 13 22 53 24 26 42 37 63 37 22 0 26 3 14 10 -40 26 -63 12 -140 -85
-41 -52 -78 -95 -82 -95 -4 0 -8 -11 -8 -25 0 -23 2 -24 20 -15 11 6 20 7 20
3 0 -4 5 -2 10 3 7 7 29 8 63 3 63 -10 110 -54 105 -97 -3 -29 -23 -33 -23 -4
-1 20 -47 72 -64 72 -7 0 -10 4 -7 8 12 20 -61 -3 -79 -24 -26 -30 -45 -31
-45 -1 0 18 -2 19 -10 7 -5 -8 -10 -28 -10 -44 0 -35 -7 -30 -20 12 -6 22 -5
31 3 29 6 -1 13 6 15 16 2 12 -3 17 -18 17 -12 0 -31 11 -41 24 -17 22 -79 42
-79 26 0 -4 -10 -6 -22 -5 -13 1 -16 0 -8 -2 8 -2 21 -16 28 -31 11 -23 10
-29 -5 -40 -39 -28 -63 -52 -63 -63 0 -7 10 -1 23 12 12 13 40 39 62 57 22 17
33 30 25 27 -8 -3 -21 4 -28 15 -11 18 -10 20 9 20 36 0 57 -18 75 -66 15 -39
15 -47 3 -56 -11 -8 -11 -9 3 -5 12 4 18 -3 23 -31 3 -20 18 -54 31 -75 14
-22 32 -58 40 -80 l14 -42 -25 30 c-33 40 -75 114 -75 134 -1 14 -2 14 -11 -1
-7 -13 -5 -26 6 -47 22 -44 19 -51 -20 -51 -37 0 -95 24 -95 39 0 18 -34 21
-57 5 -14 -8 -27 -13 -30 -11 -3 3 2 28 10 56 15 50 13 61 -7 61 -6 0 -4 -5 4
-10 9 -6 11 -10 3 -10 -7 0 -10 -6 -8 -12 4 -9 -5 -13 -27 -13 -18 0 -33 6
-36 14 -3 8 0 11 7 7 6 -4 11 -2 11 3 0 16 -26 13 -40 -4 -16 -20 -25 -11 -38
37 -8 31 -7 39 8 53 11 10 24 14 31 9 9 -5 10 -2 6 9 -4 10 0 17 11 19 13 3
14 5 4 11 -8 5 -23 -2 -41 -20 -27 -28 -30 -28 -50 -12 l-20 17 23 60 c22 55
82 132 104 132 5 0 12 -33 15 -72 4 -61 3 -75 -11 -86 -15 -12 -13 -12 13 -7
17 4 38 9 47 11 9 3 22 20 28 39 9 27 17 35 36 35 13 0 24 -6 24 -12 0 -10 3
-9 9 1 6 10 10 10 13 1 2 -8 13 -9 38 -3 l35 10 -39 7 c-21 4 -41 5 -44 2 -5
-6 -31 24 -32 37 0 4 9 3 20 -3 11 -6 20 -8 20 -5 0 8 61 -24 84 -44 18 -15
19 -15 13 2 -4 9 -2 17 3 17 6 0 10 -13 10 -30 0 -20 5 -30 15 -30 10 0 15 11
15 35 0 46 -38 74 -77 56 -21 -9 -30 -9 -49 4 -41 27 -71 20 -84 -20 -6 -19
-24 -48 -40 -63 l-28 -28 -5 65 c-3 54 -1 69 13 81 42 37 31 60 -38 75 l-33 7
2 -41z m76 9 c2 0 3 -5 3 -11 0 -7 -12 -10 -29 -7 -18 3 -28 0 -24 -5 3 -6 1
-7 -5 -3 -7 4 -12 16 -12 26 0 16 4 17 32 9 18 -5 34 -9 35 -9z m507 -144 c-3
-9 -11 -16 -18 -16 -6 0 -18 -15 -26 -33 -10 -22 -23 -33 -40 -35 -18 -2 -21
0 -11 6 7 6 11 14 8 19 -6 10 18 35 62 65 28 19 34 18 25 -6z m-1031 -80 c7
-18 -1 -26 -26 -26 -11 0 -29 -7 -39 -17 -20 -18 -25 -5 -5 19 12 15 46 37 58
38 4 0 9 -6 12 -14z m928 -90 c6 -22 10 -43 9 -45 -1 -2 11 -12 27 -22 15 -10
24 -19 18 -19 -20 -1 21 -20 42 -20 20 0 21 -3 13 -26 -6 -14 -10 -39 -10 -55
0 -22 -5 -29 -19 -29 -10 0 -24 -7 -31 -15 -30 -36 -114 1 -103 45 6 22 -15
36 -30 20 -9 -9 -9 -11 2 -8 7 2 16 -3 18 -9 5 -14 -16 -17 -32 -5 -24 16 -63
99 -63 132 0 30 6 40 36 60 50 34 84 49 99 43 7 -3 18 -24 24 -47z m-937 35
c3 -5 -1 -11 -9 -15 -11 -4 -13 -11 -5 -31 7 -19 6 -25 -5 -25 -17 0 -28 33
-20 60 7 21 29 27 39 11z m1172 -5 c10 -8 16 -18 12 -21 -4 -4 -1 -19 6 -34 8
-14 12 -38 9 -52 l-5 -26 -34 18 c-20 9 -57 23 -85 30 -46 12 -49 15 -49 45 0
29 4 33 38 42 54 14 86 14 108 -2z m-1496 -66 c0 -6 11 -15 25 -20 22 -9 45
-44 45 -71 0 -5 -11 -9 -24 -9 -13 0 -43 -7 -66 -15 -54 -19 -57 -19 -35 5 9
10 15 26 12 33 -3 8 0 20 6 26 9 10 5 10 -17 1 -16 -6 -32 -8 -35 -4 -3 4 0 9
7 11 6 3 12 12 12 20 0 10 6 13 16 9 14 -5 15 -4 4 9 -11 13 -8 15 19 15 17 0
31 -5 31 -10z m210 -85 c0 -30 29 -47 84 -49 25 -1 41 -7 44 -16 3 -13 2 -13
-7 0 -12 17 -14 10 -5 -14 3 -9 10 -14 15 -11 4 3 17 -12 28 -33 l19 -38 -33
-27 c-38 -31 -50 -34 -41 -12 5 14 -18 21 -48 16 -8 -2 -3 28 10 63 3 9 1 16
-5 16 -6 0 -11 -12 -11 -26 0 -17 -4 -24 -12 -20 -7 3 -21 9 -30 12 -28 10
-56 132 -35 153 18 18 27 13 27 -14z m631 -7 c4 -16 3 -28 -2 -28 -5 0 -14 12
-20 28 -10 25 -11 25 -21 9 -7 -13 -7 -22 1 -30 19 -19 12 -46 -13 -53 -14 -3
-33 -15 -43 -26 -16 -19 -14 -18 27 4 27 15 47 33 50 48 5 22 6 22 23 6 23
-23 22 -51 -3 -76 -11 -11 -17 -26 -14 -35 4 -9 3 -15 -2 -13 -20 5 -51 -23
-69 -61 -10 -23 -24 -41 -32 -41 -16 0 -16 5 -3 31 8 14 7 26 -5 46 -15 25
-14 16 0 -20 3 -7 -1 -21 -9 -32 -12 -16 -18 -18 -33 -9 -10 6 -18 17 -18 25
0 8 -4 20 -8 26 -10 16 11 87 32 110 9 10 21 31 26 48 13 36 71 77 104 73 17
-2 27 -11 32 -30z m-901 -2 c0 -18 -27 -39 -40 -31 -7 4 -7 12 0 26 12 22 40
26 40 5z m1013 -43 c17 -16 27 -22 22 -14 -6 10 -2 11 16 6 13 -5 41 -7 61 -7
40 2 60 -13 28 -21 -11 -3 -24 -16 -29 -29 -5 -12 -18 -44 -28 -70 -10 -27
-21 -48 -24 -48 -3 0 -18 27 -34 60 -29 61 -41 68 -77 49 -19 -10 -20 -9 -13
23 19 86 32 94 78 51z m-865 -55 c6 -40 15 -90 18 -110 l7 -38 -44 -1 c-28 0
-37 -3 -26 -7 16 -7 14 -11 -13 -37 -21 -20 -30 -38 -30 -59 0 -19 -10 -42
-27 -61 -16 -19 -24 -23 -19 -11 3 10 2 24 -2 30 -5 6 -5 22 -1 36 7 24 7 24
8 3 1 -13 6 -23 11 -23 14 0 12 12 -6 39 -25 34 -36 91 -18 91 8 0 14 -9 14
-19 0 -25 10 -51 20 -51 13 0 -16 73 -34 86 -13 9 -16 20 -11 48 5 23 3 36 -3
36 -6 0 -13 -10 -15 -22 -4 -19 -4 -19 -6 5 -1 18 8 36 24 51 14 13 25 26 25
30 0 4 -7 0 -16 -9 -16 -15 -18 -15 -33 0 -21 21 -5 31 59 40 25 3 52 10 60
16 36 22 46 11 58 -63z m857 -47 c15 -29 14 -30 -20 -51 -19 -12 -33 -25 -31
-29 6 -9 -34 -7 -56 3 -24 11 -22 30 5 50 12 9 15 14 7 11 -8 -4 -4 3 9 15 13
11 31 18 38 16 8 -3 11 -1 8 4 -3 6 1 10 9 10 9 0 22 -13 31 -29z m-509 -53
l26 -12 -43 -12 c-37 -11 -115 -36 -154 -51 -33 -13 -60 -35 -71 -60 l-12 -28
-1 31 c-1 30 4 34 111 88 61 31 112 56 114 56 2 0 15 -5 30 -12z m539 -9 c5
-14 0 -26 -16 -40 l-24 -20 -18 22 c-17 22 -17 22 10 40 35 24 40 24 48 -2z
m-665 -7 c0 -8 -128 -77 -144 -77 -5 0 -11 -7 -13 -15 -4 -13 -3 -13 5 -1 7
10 10 3 9 -27 -1 -23 -5 -42 -9 -42 -5 0 -7 -3 -7 -7 5 -34 -22 -44 -62 -23
-10 6 -19 8 -19 6 0 -3 13 -12 30 -21 19 -10 27 -20 24 -30 -4 -9 -1 -29 6
-46 18 -43 6 -46 -30 -6 -18 22 -45 39 -68 44 -42 10 -55 39 -26 60 21 15 68
17 94 3 13 -7 21 -6 30 5 10 12 7 21 -14 46 -37 43 -34 76 7 93 17 8 48 21 67
29 37 17 120 23 120 9z m180 -22 c29 -8 37 -16 48 -50 6 -22 12 -45 12 -52 0
-13 -29 -48 -41 -48 -10 0 -44 61 -41 72 1 4 -7 12 -18 18 -11 6 -18 15 -15
20 3 5 -4 14 -16 21 -17 9 -19 13 -8 20 18 11 36 11 79 -1z m355 -11 c47 -28
62 -55 35 -64 -22 -7 -27 -25 -7 -25 6 0 25 16 40 35 21 26 36 35 58 35 18 0
28 -4 24 -10 -4 -6 -1 -17 5 -25 7 -8 9 -15 5 -15 -4 0 -2 -7 5 -15 10 -12 9
-15 -6 -16 -11 -1 -23 -1 -28 0 -13 3 -47 -31 -57 -57 -5 -12 -19 -27 -31 -32
l-23 -9 23 0 c16 -1 22 -7 22 -24 0 -20 -4 -23 -29 -19 -23 3 -33 12 -45 43
-20 50 -21 89 -1 89 8 0 15 7 15 16 0 12 -6 15 -25 10 -18 -5 -25 -2 -25 9 0
8 -5 15 -11 15 -10 0 -4 52 8 73 6 10 8 10 48 -14z m-407 -58 c23 -29 40 -56
37 -62 -4 -5 -1 -9 4 -9 6 0 11 -7 11 -15 0 -16 -17 -19 -44 -9 -9 3 -13 10
-10 15 3 5 -2 6 -10 3 -9 -3 -17 2 -21 15 -8 25 -13 25 -40 5 -20 -16 -20 -16
0 -12 11 1 21 -2 23 -7 1 -6 -9 -10 -23 -11 -16 -1 -27 6 -31 18 -5 16 -13 19
-40 16 -22 -3 -34 0 -34 8 0 6 -7 18 -17 25 -15 13 -15 12 -2 -8 12 -20 11
-25 -9 -45 -19 -20 -24 -21 -32 -8 -7 11 -10 12 -10 2 0 -8 9 -16 20 -19 10
-3 22 -14 26 -25 3 -11 20 -26 37 -33 18 -8 28 -15 22 -16 -5 -1 -14 -3 -20
-4 -5 0 -32 -14 -60 -29 -27 -15 -43 -25 -35 -23 121 35 128 39 134 78 3 21
11 41 16 44 5 3 60 3 121 -1 97 -6 112 -9 116 -26 3 -10 8 -18 12 -18 7 0 51
-72 51 -84 0 -3 -4 -6 -10 -6 -5 0 -10 6 -10 14 0 8 -7 16 -15 20 -8 3 -15 16
-16 28 0 13 -3 17 -6 10 -3 -8 3 -29 12 -47 18 -32 18 -33 -4 -68 -12 -19 -32
-42 -46 -51 -22 -15 -24 -14 -28 7 -4 19 -4 18 -6 -5 -1 -37 -20 -36 -27 2 -4
17 -10 30 -15 30 -4 0 -3 -14 3 -31 12 -35 4 -48 -19 -33 -14 8 -63 130 -63
154 0 13 52 31 64 22 6 -5 20 -6 31 -1 17 6 16 8 -10 10 -16 1 -38 1 -48 1
-10 -1 -28 5 -40 13 -35 24 -45 19 -40 -20 3 -27 1 -35 -10 -35 -9 0 -48 -16
-88 -35 -41 -19 -80 -35 -89 -35 -12 -1 -11 -3 3 -11 13 -7 25 -6 45 4 120 65
165 87 170 83 11 -12 14 -104 3 -124 -12 -23 -230 -97 -260 -87 -10 3 -23 23
-30 45 -13 44 -14 45 -42 30 -10 -6 -19 -8 -19 -6 0 3 11 11 24 18 20 11 22
15 10 26 -12 11 -14 10 -14 -3 0 -9 -7 -18 -15 -21 -8 -4 -15 -17 -15 -30 0
-17 -8 -27 -25 -34 -24 -9 -25 -11 -12 -42 13 -30 22 -35 52 -28 6 1 36 2 68
1 94 -2 66 -21 -30 -21 -88 0 -88 0 -105 31 -18 30 -24 90 -11 102 3 4 12 -1
20 -11 12 -15 13 -14 7 11 -5 20 1 38 20 67 14 22 32 40 40 40 7 0 24 -15 36
-34 17 -23 29 -32 43 -28 14 4 16 7 6 13 -11 6 -7 15 14 37 27 28 27 29 12 66
-15 35 -15 40 5 79 12 24 36 60 54 81 28 34 39 39 91 46 33 4 51 8 40 9 -17 1
-16 4 10 20 17 11 35 18 40 17 6 -1 29 -26 53 -55z m902 27 c0 -29 -17 -41
-39 -29 -32 17 -27 41 9 41 17 0 30 -5 30 -12z m-1272 -24 c1 -14 7 -34 12
-45 10 -17 7 -19 -25 -19 -31 0 -35 3 -35 26 0 15 10 35 22 45 11 11 22 19 22
19 1 0 3 -11 4 -26z m898 -73 c-22 -25 -23 -72 -2 -102 9 -13 16 -18 16 -11 0
7 4 11 9 8 5 -3 8 6 7 22 0 15 3 28 8 29 5 0 18 17 28 37 10 20 25 36 33 36
11 0 9 -11 -8 -50 -13 -30 -27 -48 -34 -45 -11 4 -18 -21 -14 -47 0 -5 -6 -8
-14 -8 -9 0 -18 -7 -21 -15 -4 -8 -10 -12 -15 -9 -5 3 -19 -5 -30 -18 -12 -14
-22 -18 -25 -12 -3 6 -12 20 -20 30 -12 15 -12 12 1 -15 21 -42 1 -31 -21 12
-9 18 -13 29 -9 25 4 -4 16 -3 26 3 11 5 19 6 19 2 0 -4 13 -8 29 -9 29 -1 29
0 14 23 -25 39 -4 133 30 133 5 0 2 -9 -7 -19z m39 -17 c-14 -20 -25 -45 -25
-56 0 -11 -4 -16 -10 -13 -21 13 -11 63 18 84 40 30 45 26 17 -15z m-695 12
c0 -38 -32 -61 -53 -40 -14 14 6 24 21 12 15 -12 16 -11 4 4 -8 9 -11 22 -7
28 9 15 35 12 35 -4z m-266 -115 c25 -13 44 -31 53 -52 18 -43 3 -56 -27 -24
-31 33 -42 32 -79 -10 -17 -19 -34 -35 -39 -35 -4 0 -13 -21 -20 -46 -11 -40
-14 -43 -27 -30 -8 8 -15 21 -15 28 0 11 -2 11 -9 0 -5 -8 -17 -11 -34 -7
l-25 7 26 44 c15 24 34 47 43 49 9 3 24 23 34 45 10 22 24 45 31 51 8 6 11 16
7 23 -4 6 4 3 17 -7 14 -10 43 -26 64 -36z m1164 -33 c-2 -12 -9 -23 -17 -26
-9 -3 -11 0 -6 8 5 8 4 11 -3 7 -14 -9 -43 3 -36 14 3 5 9 7 14 4 5 -3 11 -1
15 5 12 19 37 11 33 -12z m-13 -31 c19 1 33 -3 30 -7 -3 -5 13 -11 35 -15 22
-4 40 -11 40 -17 0 -7 -16 -8 -47 -3 -27 4 -58 8 -70 7 -14 0 -20 4 -16 12 3
6 3 8 -1 4 -9 -8 -56 39 -56 55 0 6 11 0 25 -13 18 -16 36 -24 60 -23z m-574
-25 c-6 -11 -18 -22 -26 -26 -18 -6 -13 6 13 37 19 22 27 15 13 -11z m355 5
c1 -10 10 -27 19 -38 10 -10 15 -25 11 -34 -3 -9 -2 -13 4 -10 6 3 10 0 10 -8
0 -11 -10 -11 -54 -3 -64 13 -70 18 -72 55 -2 46 75 82 82 38z m469 3 c-3 -5
-1 -10 4 -10 6 0 11 -7 11 -15 0 -19 -14 -19 -31 1 -10 13 -10 17 2 25 18 11
22 11 14 -1z m-303 -21 c22 -16 32 -19 37 -10 6 9 14 9 34 0 15 -7 27 -16 27
-21 0 -4 9 -8 19 -8 11 0 22 -4 26 -9 7 -12 -54 -19 -75 -9 -8 4 -41 18 -73
32 -33 14 -56 30 -52 36 9 15 24 12 57 -11z m198 -19 c0 -15 -7 -20 -27 -20
-25 0 -26 0 -8 20 10 11 22 20 27 20 4 0 8 -9 8 -20z m-675 -20 c0 -15 -13
-36 -35 -56 l-35 -32 -27 31 c-15 18 -27 34 -28 38 -1 12 77 49 100 47 19 -2
25 -9 25 -28z m425 14 c0 -3 -5 -15 -11 -26 -9 -17 -13 -18 -20 -7 -5 8 -9 9
-9 3 0 -6 11 -21 25 -34 27 -25 53 -21 64 11 4 12 2 12 -12 0 -9 -7 -24 -11
-32 -7 -17 6 -19 15 -6 35 8 12 20 11 81 -8 71 -23 72 -23 66 -53 -7 -34 -42
-88 -58 -88 -6 0 -16 6 -22 14 -13 16 -71 32 -61 16 7 -11 -5 -13 -29 -4 -9 3
-16 13 -16 21 0 8 5 11 10 8 6 -3 10 -2 10 3 0 5 -11 10 -25 10 -20 0 -23 -3
-14 -14 22 -26 -6 -41 -78 -43 -37 -1 -72 -6 -77 -11 -11 -11 -56 -13 -81 -3
-14 5 -10 9 16 17 19 7 37 8 40 3 3 -4 22 1 42 13 23 13 38 17 42 10 3 -5 18
-10 33 -9 27 1 27 1 3 8 -25 7 -44 34 -19 28 7 -2 10 -2 6 0 -13 8 -9 25 5 20
6 -3 19 -8 28 -12 12 -4 21 6 38 45 12 28 26 48 31 45 6 -4 10 -1 10 4 0 6 5
11 10 11 6 0 10 -3 10 -6z m366 -25 c42 -25 43 -40 5 -72 l-29 -24 24 -27 c21
-22 22 -26 7 -23 -32 5 -76 39 -62 48 10 6 10 11 0 23 -14 17 -7 36 13 36 8 0
20 8 27 17 11 14 7 13 -22 -4 -45 -26 -67 -13 -41 23 21 29 36 30 78 3z m-112
-23 l26 -23 -23 -11 c-21 -11 -21 -11 4 -6 19 4 28 1 33 -12 4 -9 5 -18 4 -19
-10 -7 -102 -34 -106 -30 -2 2 1 18 7 36 6 18 11 45 11 60 0 35 11 36 44 5z
m-1276 -38 c6 -23 9 -44 7 -46 -7 -7 -45 19 -46 31 0 7 -5 3 -10 -8 -6 -15 -7
-11 -3 15 6 32 18 49 35 50 4 0 11 -19 17 -42z m491 16 c12 -15 21 -36 21 -48
0 -15 -3 -17 -9 -8 -6 10 -10 8 -15 -10 -6 -22 -7 -22 -21 11 -16 35 -44 63
-57 55 -5 -3 -8 -3 -8 1 0 6 39 23 57 24 6 1 21 -11 32 -25z m159 14 c16 -16
15 -33 -4 -52 -8 -9 -11 -16 -5 -16 6 0 11 -7 11 -15 0 -19 -86 -21 -93 -2 -3
6 -6 2 -6 -10 -1 -18 -9 -23 -47 -29 -44 -6 -130 0 -182 13 -17 4 -20 8 -11
14 8 5 17 3 21 -4 5 -9 14 -9 37 0 24 9 33 8 42 -3 6 -8 22 -14 34 -14 29 0
85 31 85 47 0 16 38 36 55 29 10 -3 12 0 8 11 -4 9 1 21 12 29 23 17 28 17 43
2z m-284 -20 c27 -44 29 -66 5 -73 -14 -5 -25 -2 -30 6 -4 8 -14 23 -22 33
-13 17 -14 17 -20 2 -4 -10 -3 -15 3 -11 19 12 10 -12 -12 -32 -13 -11 -38
-20 -55 -21 -32 -2 -44 10 -23 23 16 10 12 35 -5 29 -8 -4 -13 -10 -10 -14 8
-13 -16 -24 -61 -27 -39 -3 -42 -1 -40 22 1 17 7 25 21 26 78 6 112 5 127 -2
13 -7 21 -1 38 26 26 42 62 47 84 13z m506 -2 c0 -7 -8 -16 -17 -20 -10 -3
-34 -15 -53 -26 -39 -23 -114 -28 -108 -7 3 6 15 13 29 15 19 2 21 1 9 -7 -24
-17 5 -13 45 6 25 12 32 19 23 26 -9 6 -7 7 5 3 10 -3 28 1 40 9 26 18 27 18
27 1z m958 -21 l22 -25 -45 0 c-37 0 -45 3 -45 18 0 40 36 44 68 7z m-60 -34
c9 -5 38 -6 63 -2 27 5 59 3 80 -4 32 -11 30 -12 -51 -18 -220 -17 -399 -20
-430 -7 -28 12 -30 14 -14 23 13 7 20 6 29 -7 10 -13 33 -16 132 -16 107 0
122 2 138 20 20 22 29 24 53 11z m-442 -16 c14 -13 12 -15 -15 -15 -30 0 -39
9 -24 23 10 11 23 8 39 -8z m-281 -15 c-18 -7 -18 -8 5 -12 14 -3 -1 -4 -32
-4 -32 1 -58 4 -58 8 0 9 16 13 63 14 29 1 36 -1 22 -6z"/>
<path d="M1790 1100 c0 -6 8 -10 18 -10 15 0 18 -8 18 -44 -1 -24 3 -42 8 -39
4 3 6 21 3 40 -6 35 -6 35 15 17 11 -11 31 -42 43 -70 25 -56 39 -71 51 -53 4
7 3 9 -4 5 -6 -4 -22 19 -40 57 -17 35 -36 68 -44 74 -22 19 -68 34 -68 23z"/>
<path d="M2076 1152 c34 -30 86 -63 90 -59 6 5 -79 67 -92 67 -5 0 -4 -4 2 -8z"/>
<path d="M930 957 c0 -11 48 -65 53 -60 13 12 7 33 -8 33 -8 0 -15 4 -15 9 0
5 -7 11 -15 15 -8 3 -15 4 -15 3z"/>
<path d="M632 867 c-16 -19 -27 -71 -13 -63 6 4 11 17 11 28 0 11 8 27 18 34
9 7 12 14 6 14 -6 0 -16 -6 -22 -13z"/>
<path d="M1137 473 c-8 -41 9 -66 33 -53 23 12 24 19 10 54 -13 34 -36 33 -43
-1z"/>
<path d="M1240 1307 c0 -2 7 -18 16 -36 10 -20 14 -44 10 -61 -6 -35 6 -46 28
-25 13 14 13 19 0 51 -19 46 -37 74 -46 74 -5 0 -8 -2 -8 -3z"/>
<path d="M1456 1198 c3 -7 22 -24 42 -37 20 -12 34 -20 30 -16 -4 5 0 14 9 20
15 11 14 14 -15 29 -37 19 -74 21 -66 4z"/>
<path d="M802 1134 c-26 -18 -29 -42 -6 -51 9 -3 14 -13 11 -24 -3 -11 -1 -17
4 -13 5 3 9 14 9 24 0 10 7 23 16 28 17 9 16 43 -1 49 -6 2 -20 -4 -33 -13z"/>
<path d="M2193 1013 c-19 -7 -16 -23 5 -23 13 0 9 -7 -16 -31 -17 -16 -37 -27
-42 -24 -6 4 -17 1 -25 -5 -8 -6 -20 -8 -26 -4 -8 4 -9 3 -5 -4 9 -15 36 -16
36 -1 0 6 7 8 16 5 10 -4 25 1 36 10 27 25 31 13 18 -51 -10 -46 -15 -56 -29
-52 -10 2 -35 -4 -56 -14 -42 -21 -70 -25 -60 -9 3 6 2 10 -4 10 -6 0 -16 -10
-22 -22 -9 -18 -9 -21 1 -11 16 15 103 -15 96 -34 -3 -6 2 -17 11 -24 13 -11
15 -10 11 6 -5 23 27 55 54 55 11 0 16 5 13 10 -4 6 -11 8 -16 5 -15 -10 -10
22 6 35 8 7 15 22 15 33 0 19 1 19 13 4 10 -15 12 -9 14 39 2 55 -10 105 -24
103 -5 0 -14 -3 -20 -6z"/>
<path d="M1104 995 c-18 -14 -18 -15 6 -12 34 3 37 -26 5 -43 -14 -7 -23 -15
-21 -17 2 -3 14 0 25 7 19 9 21 8 21 -13 0 -13 7 -32 16 -43 14 -18 15 -18 4
3 -6 13 -10 38 -8 57 1 19 -4 41 -10 49 -10 12 -10 16 0 20 9 4 8 6 -3 6 -8 1
-24 -6 -35 -14z"/>
<path d="M2324 941 c-5 -22 -13 -30 -35 -35 -19 -4 -29 -12 -29 -24 0 -10 -8
-34 -18 -54 l-19 -36 40 -12 39 -11 -7 -47 c-8 -51 -54 -175 -67 -180 -5 -2
-4 -10 3 -18 7 -8 9 -17 5 -21 -3 -4 -12 2 -19 12 -8 10 -20 16 -27 13 -20 -6
17 -38 44 -38 27 0 86 28 86 40 0 5 -7 13 -16 18 -13 7 -10 9 12 9 16 0 57 10
91 23 55 20 64 21 77 8 9 -9 25 -13 40 -11 20 4 26 1 26 -12 0 -14 -7 -16 -30
-13 -24 4 -30 1 -30 -15 0 -10 -8 -33 -17 -49 -14 -23 -15 -32 -5 -35 6 -3 10
-9 6 -14 -3 -5 6 -14 20 -20 14 -7 23 -16 20 -20 -3 -5 -3 -9 0 -9 11 0 45 68
51 103 5 28 14 41 31 47 29 11 31 39 5 71 l-18 23 -14 -22 c-8 -13 -24 -22
-39 -22 -22 0 -28 7 -39 44 -10 36 -10 48 1 66 11 19 11 23 -7 36 -11 8 -31
14 -45 12 -20 -2 -25 -9 -25 -32 0 -16 -6 -31 -12 -33 -8 -3 -13 5 -13 21 0
14 -5 26 -11 26 -6 0 -8 9 -4 20 3 11 2 27 -4 37 -8 16 -10 15 -16 -9 -6 -23
-9 -25 -26 -15 -18 11 -17 22 4 22 7 0 12 11 12 25 0 15 6 26 17 28 13 3 16
-1 11 -14 -4 -12 -3 -15 6 -9 9 5 11 19 6 41 -4 26 -2 36 10 40 25 10 17 42
-15 59 -41 21 -50 19 -56 -14z m39 -27 c9 -10 -25 -63 -44 -69 -9 -3 -25 -16
-35 -28 -10 -12 -12 -16 -4 -9 8 6 22 12 32 12 16 0 17 -3 8 -20 -12 -23 -29
-25 -54 -7 -28 20 -4 89 38 109 36 18 50 20 59 12z m-49 -251 c-8 -35 -20 -78
-28 -97 -13 -32 -13 -33 8 -29 19 4 18 3 -4 -11 -29 -18 -44 -20 -35 -6 3 6 2
10 -4 10 -6 0 3 32 20 71 28 65 33 85 39 144 1 20 2 20 9 0 4 -10 2 -47 -5
-82z m35 17 c-6 -16 -14 -28 -19 -25 -12 7 1 55 16 55 10 0 11 -6 3 -30z m128
-31 c10 -36 9 -39 -11 -39 -22 0 -82 -20 -104 -34 -7 -4 -15 -6 -17 -5 -6 7
24 84 35 87 5 2 20 12 32 21 31 26 53 16 65 -30z m50 -166 c-6 -32 -20 -52
-37 -53 -3 0 -7 11 -8 25 -1 14 2 25 7 25 5 0 11 9 14 20 10 37 30 23 24 -17z"/>
<path d="M1204 845 c0 -33 2 -50 4 -38 2 13 14 26 30 32 22 8 23 10 6 10 -13
1 -24 11 -30 29 -8 23 -10 18 -10 -33z"/>
<path d="M2239 760 c18 -4 37 -14 42 -22 7 -10 9 -10 9 3 0 20 -21 29 -58 28
-24 -1 -24 -2 7 -9z"/>
<path d="M1325 671 c-28 -16 -58 -37 -65 -47 -14 -16 -13 -17 15 -10 36 9 107
49 125 70 21 27 -19 20 -75 -13z"/>
<path d="M1895 675 c21 -17 43 -25 75 -26 49 -1 111 -16 76 -18 -38 -2 -6 -13
49 -17 35 -2 54 0 50 6 -3 6 -21 10 -39 10 -17 0 -37 5 -43 11 -6 6 -41 14
-78 17 -50 4 -69 9 -78 23 -7 11 -19 19 -27 19 -9 0 -4 -9 15 -25z"/>
<path d="M1850 684 c0 -3 12 -26 27 -52 l26 -47 -43 40 c-42 39 -42 39 -19 7
13 -19 42 -47 64 -63 36 -27 40 -28 46 -12 4 12 -6 32 -32 62 -22 24 -39 47
-39 51 0 4 -7 10 -15 14 -8 3 -15 3 -15 0z"/>
<path d="M487 663 c-12 -12 -7 -23 10 -23 14 0 13 -3 -5 -23 -29 -31 -29 -50
1 -41 21 6 20 5 -5 -23 -16 -16 -28 -36 -28 -45 0 -17 36 -35 47 -24 4 3 -2 6
-13 6 -18 1 -18 1 -1 14 9 7 17 17 17 21 0 5 -9 0 -20 -10 -11 -10 -20 -14
-20 -8 0 14 35 44 43 37 4 -4 11 4 16 17 5 13 18 33 30 43 l22 20 -23 13 c-13
7 -32 13 -43 13 -20 1 -20 1 0 10 20 8 20 9 -1 9 -11 1 -24 -2 -27 -6z m53
-43 c0 -12 -40 -33 -48 -25 -4 4 2 13 12 21 23 16 36 18 36 4z"/>
<path d="M1401 635 c-1 -12 -4 -16 -9 -9 -5 9 -11 8 -20 -2 -11 -12 -10 -14 5
-14 11 0 14 -3 7 -8 -7 -4 -8 -15 -3 -29 10 -28 23 -31 14 -3 -3 10 -1 29 5
40 6 12 9 26 6 33 -2 7 -5 3 -5 -8z"/>
<path d="M2010 570 c0 -24 -5 -40 -12 -40 -6 0 -9 -3 -5 -6 3 -4 0 -19 -8 -35
-22 -42 -19 -42 35 -3 29 21 67 38 89 41 27 4 41 11 44 24 6 24 0 24 -40 0
-35 -22 -65 -22 -71 0 -3 11 -1 11 7 -1 10 -13 11 -13 11 0 0 13 1 13 10 0 7
-11 10 -7 10 18 0 29 -2 32 -15 20 -48 -44 -48 -44 -43 -10 2 18 1 32 -4 32
-4 0 -8 -18 -8 -40z"/>
<path d="M2305 492 c6 -6 35 -12 65 -14 l55 -3 -3 -60 c-2 -33 -5 -71 -8 -85
-2 -14 2 -34 10 -45 12 -17 13 -9 9 64 -3 56 0 87 8 97 10 12 8 17 -7 29 -10
8 -28 15 -39 15 -11 0 -38 3 -60 6 -28 5 -37 3 -30 -4z"/>
<path d="M402 465 c-21 -9 -37 -25 -43 -44 -8 -22 -18 -31 -44 -35 -41 -8 -51
-21 -57 -67 -3 -32 -2 -35 19 -31 13 2 30 -1 38 -8 11 -9 19 -8 37 4 12 9 37
16 55 16 18 0 33 5 33 11 0 7 -9 9 -22 6 -14 -4 -32 1 -47 12 -23 18 -24 21
-13 60 13 41 44 71 72 71 8 -1 1 -7 -17 -15 -17 -7 -34 -23 -38 -35 -9 -28 12
-70 31 -63 8 3 14 -1 14 -8 0 -11 2 -11 9 1 13 19 5 29 -19 23 -16 -4 -19 -2
-14 13 5 16 4 16 -5 4 -6 -9 -11 -10 -11 -3 0 28 16 47 54 64 23 10 34 19 26
19 -13 0 -13 1 0 10 24 16 -19 12 -58 -5z m-53 -147 c1 -22 -54 -25 -62 -4 -6
16 26 59 37 49 3 -3 6 0 7 8 1 17 17 -29 18 -53z"/>
<path d="M2240 445 c13 -14 30 -25 38 -25 7 0 0 11 -16 25 -17 14 -33 25 -38
25 -4 0 3 -11 16 -25z"/>
<path d="M1464 362 c-11 -20 -26 -36 -33 -34 -7 1 -10 -2 -6 -8 3 -6 11 -8 16
-5 5 4 9 0 9 -7 0 -16 49 62 50 80 0 23 -15 12 -36 -26z"/>
<path d="M2245 341 c0 -28 4 -37 13 -33 9 3 11 13 7 31 -10 43 -21 44 -20 2z"/>
</g>
</svg>
