<?xml version="1.0" standalone="no"?>
<!DOCTYPE svg PUBLIC "-//W3C//DTD SVG 20010904//EN"
 "http://www.w3.org/TR/2001/REC-SVG-20010904/DTD/svg10.dtd">
<svg version="1.0" xmlns="http://www.w3.org/2000/svg"
 width="300.000000pt" height="202.000000pt" viewBox="0 0 300.000000 202.000000"
 preserveAspectRatio="xMidYMid meet">
<metadata>
Created by potrace 1.10, written by Peter Selinger 2001-2011
</metadata>
<g transform="translate(0.000000,202.000000) scale(0.100000,-0.100000)"
fill="#000000" stroke="none">
<path d="M1 1630 c0 -330 3 -390 15 -390 12 0 14 60 14 390 0 339 -2 390 -15
390 -13 0 -15 -51 -14 -390z"/>
<path d="M75 1358 c-3 -13 -14 -63 -24 -113 -13 -68 -22 -91 -35 -93 -20 -4
-17 -24 5 -27 18 -3 33 14 36 40 5 46 22 122 35 151 l13 32 115 2 c204 4 286
2 327 -5 44 -7 46 -10 60 -110 3 -22 11 -47 19 -56 17 -19 9 -29 -25 -30 -25
-1 -25 -2 3 -8 41 -9 56 -36 31 -55 -12 -10 -15 -15 -7 -16 7 0 10 -5 7 -11
-8 -12 -12 -67 -20 -274 -3 -88 -8 -180 -11 -205 -2 -25 -6 -91 -8 -148 -5
-130 -14 -141 -108 -134 -35 2 -74 4 -88 3 -26 -1 -92 0 -218 3 -86 1 -91 6
-94 91 -1 33 -3 80 -4 105 -1 53 -12 241 -19 355 -10 150 -17 205 -26 205 -11
0 -11 1 1 -195 5 -88 12 -207 15 -265 12 -243 18 -306 27 -317 12 -15 494 -18
517 -4 14 9 26 176 46 629 7 147 9 162 26 162 14 0 18 8 17 40 0 31 -4 40 -18
40 -14 0 -21 21 -40 115 l-23 115 -263 0 -264 0 -5 -22z"/>
<path d="M815 1368 c-2 -7 -11 -51 -20 -98 -22 -113 -24 -120 -41 -120 -10 0
-14 -12 -14 -40 0 -29 4 -40 15 -40 8 0 15 -3 15 -7 0 -118 44 -770 52 -780 8
-10 66 -13 259 -13 283 0 279 -1 279 78 0 26 7 199 17 385 15 291 19 337 32
337 12 0 16 10 16 40 0 30 -4 40 -16 40 -13 0 -21 25 -39 115 l-23 115 -264 0
c-202 0 -265 -3 -268 -12z m509 -52 c8 -17 17 -51 21 -76 4 -25 11 -52 16 -61
5 -10 4 -20 -3 -27 -9 -9 -9 -12 1 -12 7 0 9 -5 5 -12 -4 -6 -3 -8 4 -4 21 12
23 -13 2 -34 -16 -16 -17 -20 -5 -20 13 0 14 -4 5 -20 -6 -11 -13 -75 -15
-143 -3 -67 -7 -158 -10 -202 -3 -44 -7 -136 -10 -205 -7 -160 -12 -188 -33
-194 -26 -9 -414 -4 -438 5 -11 4 -21 13 -21 21 -2 35 -13 210 -18 268 -14
165 -14 234 -2 242 9 6 9 10 -1 16 -8 5 -14 40 -17 93 -3 46 -8 92 -11 101 -4
13 0 18 13 19 15 0 14 2 -4 11 -29 14 -30 46 -1 57 18 6 19 9 5 14 -15 6 -15
9 0 44 8 21 18 52 20 68 3 17 9 35 14 41 5 6 6 14 3 17 -19 19 29 24 235 23
l231 0 14 -30z"/>
<path d="M1040 896 c-37 -9 -47 -18 -66 -54 -13 -24 -34 -52 -47 -62 -34 -27
-36 -98 -3 -154 43 -74 91 -100 137 -76 16 9 25 8 39 -5 37 -33 106 7 148 85
28 54 28 79 -3 124 -14 21 -25 43 -24 49 4 32 -4 47 -32 68 -41 29 -94 38
-149 25z m116 -41 c4 -9 13 -13 24 -10 16 5 16 1 7 -40 -9 -37 -14 -45 -33
-45 -30 0 -82 21 -66 27 14 6 16 33 2 33 -6 0 -16 -11 -22 -25 -13 -29 -19
-30 -59 -9 -28 14 -29 17 -17 37 8 12 18 28 22 35 11 19 135 16 142 -3z m-136
-100 c5 -14 13 -37 16 -51 5 -20 3 -23 -11 -18 -10 4 -21 1 -26 -7 -14 -22
-11 -24 28 -24 37 0 38 -1 41 -37 l3 -38 -45 0 c-46 0 -46 0 -75 58 -22 45
-27 62 -19 76 8 13 7 21 -3 27 -13 8 6 19 56 32 11 2 21 5 23 6 1 0 7 -10 12
-24z m208 -22 c6 -15 12 -32 12 -39 0 -21 -52 -105 -69 -112 -9 -3 -20 -12
-25 -20 -6 -11 -14 -8 -37 14 -16 15 -29 33 -29 38 1 19 53 72 58 58 2 -6 12
-12 22 -12 18 0 18 1 2 30 -17 30 -16 31 8 50 33 26 43 25 58 -7z m-115 -13
c3 -13 -3 -25 -19 -35 -23 -15 -24 -14 -25 5 -1 11 -2 26 -3 33 -3 20 3 25 23
20 11 -3 21 -13 24 -23z"/>
<path d="M1531 1265 c-16 -79 -28 -115 -37 -115 -10 0 -14 -13 -14 -40 0 -29
4 -40 15 -40 11 0 15 -13 15 -52 2 -175 39 -719 50 -733 18 -21 501 -23 519
-1 9 11 51 635 51 764 0 13 6 22 15 22 11 0 15 11 15 40 0 28 -4 40 -14 40
-13 0 -24 39 -54 185 l-8 40 -265 3 -264 2 -24 -115z m515 71 c17 -13 20 -20
28 -76 2 -14 11 -43 20 -65 12 -27 13 -41 5 -45 -7 -5 -5 -9 5 -13 23 -9 19
-42 -6 -55 l-23 -11 24 0 c18 -1 21 -4 12 -14 -12 -15 -16 -71 -27 -317 -3
-91 -11 -170 -16 -177 -5 -7 -5 -14 1 -17 6 -4 8 -12 6 -19 -2 -7 -6 -50 -9
-97 -7 -118 -8 -120 -70 -121 -235 -4 -405 -3 -410 1 -9 10 -16 107 -31 455
-9 197 -16 279 -27 293 -8 9 -3 12 18 13 29 1 29 1 4 8 -30 8 -37 56 -8 56 9
0 20 4 24 8 4 4 -3 7 -15 7 -18 0 -22 4 -16 18 4 9 15 49 25 87 13 54 22 73
40 82 35 17 422 16 446 -1z"/>
<path d="M1742 884 c-12 -8 -29 -30 -38 -47 -9 -18 -28 -44 -42 -59 -20 -21
-25 -37 -24 -73 0 -49 39 -127 71 -145 23 -12 73 -16 88 -7 6 4 26 1 44 -7 55
-23 107 6 139 79 31 68 32 89 7 126 -12 19 -28 53 -35 76 -9 30 -21 47 -42 58
-39 20 -139 20 -168 -1z m155 -30 c3 -8 12 -13 20 -10 11 5 13 -2 7 -32 -4
-20 -9 -40 -11 -44 -6 -11 -37 -10 -70 3 -20 7 -24 12 -14 18 8 5 10 14 7 20
-11 17 -22 13 -34 -14 -14 -30 -28 -31 -61 -6 l-24 18 22 32 c21 29 26 31 87
31 49 0 66 -4 71 -16z m-134 -118 c15 -44 15 -45 -6 -48 -12 -2 -23 -10 -25
-19 -2 -12 5 -14 33 -11 l35 4 0 -41 0 -41 -39 0 c-37 0 -41 3 -72 56 -27 49
-30 60 -20 77 10 16 10 21 0 28 -8 4 -11 10 -9 12 5 3 68 24 82 26 3 1 13 -19
21 -43z m203 -7 c15 -30 15 -34 -13 -88 -19 -38 -35 -57 -50 -59 -12 -2 -23
-10 -25 -18 -2 -11 -12 -6 -36 19 l-33 34 30 33 c28 32 29 33 47 15 25 -24 31
-2 9 31 -9 14 -15 27 -13 28 24 18 54 36 60 36 4 0 15 -14 24 -31z m-116 -20
c0 -11 -4 -18 -9 -15 -5 4 -11 1 -13 -6 -7 -19 -28 1 -28 26 0 12 3 26 6 29
12 12 44 -13 44 -34z"/>
<path d="M2276 1288 c-27 -138 -27 -138 -45 -138 -12 0 -16 -10 -16 -40 l0
-40 343 0 342 0 0 43 c0 39 -2 43 -22 41 -13 -1 -108 -3 -212 -3 -104 -1 -187
-4 -183 -7 3 -4 89 -6 190 -5 176 1 185 0 190 -19 3 -10 -1 -24 -9 -31 -11 -9
-14 -8 -14 2 0 10 -3 11 -8 3 -9 -15 -538 -17 -564 -3 -10 5 -18 16 -18 24 0
14 34 30 47 22 5 -3 17 -1 28 4 15 6 10 8 -21 8 l-42 1 21 63 c11 34 22 69 25
77 3 8 4 22 3 32 -1 9 3 19 9 23 16 10 303 11 318 1 7 -4 12 -3 12 1 0 9 134
8 148 -1 9 -5 21 -51 27 -96 5 -42 18 -80 26 -80 12 0 11 22 -9 120 l-18 85
-265 3 -265 2 -18 -92z"/>
<path d="M144 1276 c-11 -47 -1 -71 31 -73 28 -2 28 -1 5 5 -17 6 -26 16 -28
35 -2 15 2 27 8 27 6 0 9 4 5 9 -3 5 5 12 17 14 20 4 19 4 -4 6 -21 1 -29 -4
-34 -23z"/>
<path d="M513 1290 c10 -6 17 -23 17 -40 0 -17 -7 -34 -17 -40 -16 -10 -16
-10 2 -8 17 3 20 11 20 48 0 37 -3 45 -20 48 -18 2 -18 2 -2 -8z"/>
<path d="M2364 1286 c-3 -8 -4 -29 -2 -48 l3 -33 124 -3 c69 -1 122 0 119 4
-4 3 -56 6 -116 5 -117 0 -124 3 -112 49 6 24 10 25 95 31 l90 5 -98 2 c-76 2
-99 -1 -103 -12z"/>
<path d="M2581 1296 c3 -3 39 -6 81 -7 70 -3 77 -5 81 -25 7 -39 -9 -52 -64
-52 -28 -1 -54 -4 -57 -7 -4 -3 25 -5 63 -3 65 3 70 5 73 27 2 12 1 34 -2 47
-6 23 -10 24 -93 24 -47 0 -84 -2 -82 -4z"/>
<path d="M2360 1135 c9 -11 15 -12 20 -5 4 6 23 10 43 8 20 -1 39 1 43 5 4 4
-21 7 -56 7 -55 0 -61 -2 -50 -15z"/>
<path d="M0 1084 c0 -10 12 -14 48 -13 26 1 38 3 27 6 -11 2 -32 8 -47 13 -22
7 -28 6 -28 -6z"/>
<path d="M2250 1028 c2 -147 40 -731 49 -742 9 -10 66 -13 259 -14 138 0 252
4 259 10 11 8 16 63 28 293 6 117 12 227 21 380 5 96 4 108 -9 97 -16 -14 -29
-72 -16 -72 5 0 7 -6 4 -12 -6 -20 -15 -168 -30 -498 -4 -80 -11 -150 -16
-156 -9 -11 -89 -14 -384 -16 -91 0 -93 1 -99 29 -5 26 -12 117 -21 293 -9
190 -17 356 -17 370 1 30 -10 70 -19 70 -5 0 -9 -15 -9 -32z"/>
<path d="M358 901 c9 -5 -3 -8 -32 -7 -35 0 -51 -5 -71 -24 -14 -13 -25 -30
-25 -37 0 -8 -12 -25 -26 -40 -50 -50 -53 -103 -9 -178 32 -56 56 -69 111 -61
25 3 55 1 69 -6 42 -19 91 11 120 75 14 28 25 57 25 64 0 6 6 14 13 16 9 4 9
6 -1 6 -7 1 -17 11 -23 24 -5 12 -16 33 -24 47 -8 14 -15 37 -15 51 0 32 -16
47 -59 55 -17 4 -34 11 -37 15 -3 5 -11 9 -17 9 -8 0 -8 -3 1 -9z m58 -46 c4
-10 13 -13 27 -9 16 5 19 3 13 -12 -4 -11 -10 -32 -13 -48 -6 -27 -8 -28 -47
-22 -39 7 -75 26 -48 26 7 0 12 7 12 15 0 24 -19 18 -32 -10 -13 -29 -19 -30
-59 -9 -28 14 -29 17 -17 37 8 12 18 28 22 35 11 19 135 16 142 -3z m-136
-100 c5 -14 13 -37 16 -51 5 -20 3 -23 -11 -18 -10 4 -21 1 -26 -7 -14 -23
-11 -26 29 -25 36 1 37 0 40 -36 l3 -38 -45 0 c-46 0 -46 0 -75 58 -22 45 -27
62 -19 76 8 13 7 21 -3 27 -17 10 -12 14 36 27 22 5 41 10 43 11 1 1 7 -10 12
-24z m209 -26 c13 -29 12 -36 -13 -86 -14 -29 -34 -57 -44 -60 -9 -4 -21 -13
-26 -21 -6 -11 -14 -8 -37 14 -36 35 -36 43 1 79 17 16 30 23 30 17 0 -7 9
-12 20 -12 18 0 18 1 2 30 -17 30 -16 31 8 50 34 27 43 25 59 -11z m-125 8
c16 -12 17 -16 5 -35 -8 -12 -17 -22 -21 -22 -16 0 -36 31 -31 50 6 23 22 25
47 7z"/>
<path d="M2499 885 c-26 -14 -65 -64 -61 -77 1 -4 -9 -15 -22 -23 -40 -26 -44
-97 -11 -162 23 -44 33 -53 70 -63 24 -7 48 -9 54 -6 6 4 28 2 50 -5 34 -10
44 -9 66 5 14 9 25 13 25 9 0 -4 11 9 25 28 13 19 29 40 35 47 6 7 8 17 5 23
-4 5 -1 16 5 24 10 12 10 18 0 30 -7 8 -9 15 -6 15 4 0 -5 12 -19 27 -14 15
-25 39 -25 53 -1 70 -117 116 -191 75z m138 -31 c3 -8 12 -13 20 -9 13 4 14
-1 8 -32 -4 -21 -9 -41 -11 -45 -7 -11 -38 -10 -71 3 -20 7 -24 12 -14 18 8 5
10 14 7 20 -11 17 -22 13 -34 -14 -14 -30 -28 -31 -61 -6 l-24 18 22 32 c21
29 26 31 87 31 49 0 66 -4 71 -16z m-131 -124 c11 -36 10 -39 -9 -42 -37 -6
-32 -28 7 -28 35 0 36 -1 36 -40 0 -40 0 -40 -39 -40 -37 0 -41 3 -72 56 -27
49 -30 60 -20 77 10 16 10 21 0 28 -8 4 -11 10 -9 12 8 7 85 24 90 20 2 -3 10
-22 16 -43z m90 -13 c2 -18 -2 -27 -12 -27 -8 0 -14 -5 -14 -11 0 -6 -5 -9
-11 -7 -6 2 -10 7 -10 11 0 3 -4 20 -9 36 -10 36 -6 41 27 32 19 -5 27 -15 29
-34z m111 9 c16 -34 15 -36 -14 -88 -19 -33 -38 -54 -51 -56 -11 -2 -22 -10
-24 -18 -2 -11 -12 -6 -36 19 l-34 35 32 33 c20 22 33 30 37 22 5 -14 33 -18
33 -5 0 4 -7 18 -16 30 -9 13 -14 24 -13 26 23 17 55 36 61 36 5 0 16 -15 25
-34z"/>
</g>
</svg>
